<svg width="413" height="66" viewBox="0 0 413 66" fill="none" xmlns="http://www.w3.org/2000/svg">
<path d="M113.399 48.9486C113.67 48.9486 113.908 49.0503 114.111 49.2539C114.315 49.4574 114.417 49.6948 114.417 49.9662C114.417 50.2715 114.315 50.5259 114.111 50.7294C113.908 50.899 113.67 50.9839 113.399 50.9839H94.7254C94.4201 50.9839 94.1657 50.8821 93.9622 50.6786C93.7926 50.475 93.7078 50.2376 93.7078 49.9662V16.3841C93.7078 16.1127 93.8095 15.8752 94.0131 15.6717C94.2166 15.4682 94.471 15.3664 94.7763 15.3664C95.0816 15.3664 95.336 15.4682 95.5395 15.6717C95.743 15.8752 95.8448 16.1127 95.8448 16.3841V49.8644L94.9289 48.9486H113.399ZM121.309 15.3664H140.492C140.763 15.3664 141.001 15.4682 141.204 15.6717C141.408 15.8752 141.509 16.1127 141.509 16.3841C141.509 16.6893 141.408 16.9438 141.204 17.1473C141.001 17.3169 140.763 17.4017 140.492 17.4017H121.92L122.429 16.5367V32.3101L121.818 31.5978H138.202C138.473 31.5978 138.711 31.6996 138.914 31.9031C139.118 32.1066 139.22 32.3441 139.22 32.6154C139.22 32.9207 139.118 33.1751 138.914 33.3787C138.711 33.5483 138.473 33.6331 138.202 33.6331H121.92L122.429 33.0734V49.203L122.225 48.9486H140.492C140.763 48.9486 141.001 49.0503 141.204 49.2539C141.408 49.4574 141.509 49.6948 141.509 49.9662C141.509 50.2715 141.408 50.5259 141.204 50.7294C141.001 50.899 140.763 50.9839 140.492 50.9839H121.309C121.038 50.9839 120.8 50.8821 120.597 50.6786C120.393 50.475 120.292 50.2376 120.292 49.9662V16.3841C120.292 16.1127 120.393 15.8752 120.597 15.6717C120.8 15.4682 121.038 15.3664 121.309 15.3664ZM150.179 50.9839C149.873 50.9839 149.619 50.8821 149.416 50.6786C149.246 50.475 149.161 50.2376 149.161 49.9662V16.3841C149.161 16.1127 149.263 15.8752 149.466 15.6717C149.67 15.4682 149.907 15.3664 150.179 15.3664H169.361C169.633 15.3664 169.87 15.4682 170.074 15.6717C170.277 15.8752 170.379 16.1127 170.379 16.3841C170.379 16.6893 170.277 16.9438 170.074 17.1473C169.87 17.3169 169.633 17.4017 169.361 17.4017H151.044L151.196 17.1982V31.8522L150.993 31.4451H167.072C167.343 31.4451 167.58 31.5469 167.784 31.7504C167.988 31.954 168.089 32.1914 168.089 32.4628C168.089 32.7681 167.988 33.0225 167.784 33.226C167.58 33.3956 167.343 33.4804 167.072 33.4804H150.891L151.196 33.0734V49.9662C151.196 50.2376 151.095 50.475 150.891 50.6786C150.722 50.8821 150.484 50.9839 150.179 50.9839ZM188.851 50.9839C188.546 50.9839 188.291 50.8821 188.088 50.6786C187.918 50.475 187.833 50.2376 187.833 49.9662V16.5876H189.868V49.9662C189.868 50.2376 189.767 50.475 189.563 50.6786C189.36 50.8821 189.122 50.9839 188.851 50.9839ZM176.486 17.2999C176.215 17.2999 175.978 17.2151 175.774 17.0455C175.571 16.842 175.469 16.6045 175.469 16.3332C175.469 16.0618 175.571 15.8413 175.774 15.6717C175.978 15.4682 176.215 15.3664 176.486 15.3664H201.215C201.487 15.3664 201.724 15.4682 201.928 15.6717C202.131 15.8413 202.233 16.0618 202.233 16.3332C202.233 16.6385 202.131 16.8759 201.928 17.0455C201.724 17.2151 201.487 17.2999 201.215 17.2999H176.486ZM240.546 39.8534C240.546 41.5495 240.281 43.0971 239.751 44.4964C239.242 45.8956 238.511 47.1041 237.557 48.1217C236.603 49.1394 235.479 49.9238 234.186 50.475C232.893 51.0263 231.472 51.3019 229.925 51.3019C228.377 51.3019 226.956 51.0263 225.663 50.475C224.37 49.9238 223.246 49.1394 222.292 48.1217C221.338 47.1041 220.596 45.8956 220.066 44.4964C219.557 43.0971 219.303 41.5495 219.303 39.8534C219.303 38.1573 219.557 36.6097 220.066 35.2104C220.596 33.8112 221.338 32.6027 222.292 31.5851C223.246 30.5674 224.37 29.783 225.663 29.2318C226.956 28.6805 228.377 28.4049 229.925 28.4049C231.472 28.4049 232.893 28.6805 234.186 29.2318C235.479 29.783 236.603 30.5674 237.557 31.5851C238.511 32.6027 239.242 33.8112 239.751 35.2104C240.281 36.6097 240.546 38.1573 240.546 39.8534ZM239.211 39.8534C239.211 37.8181 238.808 36.0372 238.002 34.5108C237.218 32.9843 236.126 31.7971 234.727 30.949C233.348 30.101 231.748 29.677 229.925 29.677C228.122 29.677 226.522 30.101 225.123 30.949C223.723 31.7971 222.621 32.9843 221.815 34.5108C221.031 36.0372 220.639 37.8181 220.639 39.8534C220.639 41.8887 221.031 43.6696 221.815 45.196C222.621 46.7225 223.723 47.9097 225.123 48.7578C226.522 49.6058 228.122 50.0298 229.925 50.0298C231.748 50.0298 233.348 49.6058 234.727 48.7578C236.126 47.9097 237.218 46.7225 238.002 45.196C238.808 43.6696 239.211 41.8887 239.211 39.8534ZM261.394 28.723C261.585 28.723 261.733 28.7866 261.839 28.9138C261.945 29.0198 261.998 29.1576 261.998 29.3272V50.2842C261.998 50.5174 261.924 50.6976 261.776 50.8248C261.649 50.9308 261.5 50.9839 261.331 50.9839C261.246 50.9839 261.15 50.9626 261.044 50.9202C260.96 50.8778 260.885 50.8142 260.822 50.7294L246.066 30.5674L246.511 30.3448V50.4432C246.511 50.5916 246.448 50.7188 246.32 50.8248C246.214 50.9308 246.077 50.9839 245.907 50.9839C245.716 50.9839 245.568 50.9308 245.462 50.8248C245.356 50.7188 245.303 50.5916 245.303 50.4432V29.359C245.303 29.1258 245.366 28.9668 245.494 28.882C245.621 28.776 245.748 28.723 245.875 28.723C245.96 28.723 246.045 28.7442 246.13 28.7866C246.214 28.8078 246.289 28.8608 246.352 28.9456L261.044 48.9804L260.79 49.6164V29.3272C260.79 29.1576 260.854 29.0198 260.981 28.9138C261.108 28.7866 261.246 28.723 261.394 28.723ZM288.466 50.9839C288.127 50.9839 287.855 50.8821 287.652 50.6786C287.482 50.475 287.397 50.2376 287.397 49.9662V16.3841C287.397 16.1127 287.499 15.8752 287.703 15.6717C287.906 15.4682 288.144 15.3664 288.415 15.3664H301.848C303.849 15.3664 305.596 15.7735 307.089 16.5876C308.615 17.3678 309.803 18.4533 310.651 19.844C311.499 21.2348 311.923 22.8122 311.923 24.5761C311.923 26.1364 311.634 27.5442 311.058 28.7993C310.515 30.0544 309.735 31.1059 308.717 31.954C307.733 32.7681 306.597 33.3617 305.308 33.7348L302.967 33.3278C304.324 33.3278 305.613 33.684 306.834 34.3963C308.056 35.0747 309.056 36.0924 309.836 37.4492C310.617 38.7722 311.007 40.4004 311.007 42.3339C311.007 43.996 311.075 45.2681 311.21 46.1501C311.38 46.9981 311.583 47.6256 311.821 48.0327C312.092 48.4397 312.398 48.762 312.737 48.9994C312.94 49.1351 313.093 49.3047 313.195 49.5083C313.296 49.7118 313.313 49.9492 313.246 50.2206C313.178 50.4241 313.059 50.5938 312.889 50.7294C312.754 50.8312 312.601 50.899 312.431 50.933C312.262 50.9669 312.075 50.933 311.872 50.8312C311.397 50.5598 310.922 50.1528 310.447 49.61C310.006 49.0673 309.633 48.2362 309.328 47.1168C309.022 45.9974 308.87 44.4031 308.87 42.3339C308.87 40.7396 308.615 39.4675 308.106 38.5177C307.632 37.5679 307.004 36.8386 306.224 36.3298C305.478 35.821 304.663 35.4818 303.782 35.3122C302.933 35.1426 302.153 35.0578 301.441 35.0578H289.077L289.535 34.4472V49.9662C289.535 50.2376 289.433 50.475 289.229 50.6786C289.026 50.8821 288.771 50.9839 288.466 50.9839ZM289.026 33.0225H302.102C303.459 32.8868 304.714 32.4797 305.868 31.8013C307.021 31.1229 307.954 30.1731 308.666 28.9519C309.412 27.7308 309.786 26.2891 309.786 24.6269C309.786 22.5577 309.039 20.8447 307.547 19.4879C306.088 18.0971 304.104 17.4017 301.594 17.4017H289.28L289.535 17.0455V33.5822L289.026 33.0225ZM322.204 15.3664H341.386C341.658 15.3664 341.895 15.4682 342.099 15.6717C342.302 15.8752 342.404 16.1127 342.404 16.3841C342.404 16.6893 342.302 16.9438 342.099 17.1473C341.895 17.3169 341.658 17.4017 341.386 17.4017H322.814L323.323 16.5367V32.3101L322.713 31.5978H339.097C339.368 31.5978 339.605 31.6996 339.809 31.9031C340.012 32.1066 340.114 32.3441 340.114 32.6154C340.114 32.9207 340.012 33.1751 339.809 33.3787C339.605 33.5483 339.368 33.6331 339.097 33.6331H322.814L323.323 33.0734V49.203L323.12 48.9486H341.386C341.658 48.9486 341.895 49.0503 342.099 49.2539C342.302 49.4574 342.404 49.6948 342.404 49.9662C342.404 50.2715 342.302 50.5259 342.099 50.7294C341.895 50.899 341.658 50.9839 341.386 50.9839H322.204C321.932 50.9839 321.695 50.8821 321.491 50.6786C321.288 50.475 321.186 50.2376 321.186 49.9662V16.3841C321.186 16.1127 321.288 15.8752 321.491 15.6717C321.695 15.4682 321.932 15.3664 322.204 15.3664ZM361.606 17.9614L348.733 50.3224C348.665 50.5259 348.546 50.6955 348.377 50.8312C348.207 50.933 348.02 50.9839 347.817 50.9839C347.478 50.9839 347.223 50.899 347.054 50.7294C346.884 50.5598 346.782 50.3563 346.748 50.1189C346.715 49.9832 346.731 49.8136 346.799 49.61L360.487 15.9261C360.588 15.6547 360.707 15.4851 360.843 15.4173C361.012 15.3155 361.216 15.2646 361.453 15.2646C361.725 15.2646 361.945 15.3325 362.115 15.4682C362.284 15.5699 362.403 15.7226 362.471 15.9261L376.158 49.61C376.192 49.7118 376.209 49.8475 376.209 50.0171C376.209 50.3224 376.107 50.5598 375.904 50.7294C375.7 50.899 375.446 50.9839 375.141 50.9839C374.903 50.9839 374.683 50.933 374.479 50.8312C374.31 50.6955 374.191 50.5259 374.123 50.3224L360.843 17.5543L361.606 17.9614ZM352.193 39.9424L352.905 37.9072H369.391L369.9 39.9424H352.193ZM397.346 15.3664C399.89 15.3664 402.095 15.8583 403.961 16.842C405.827 17.7918 407.353 19.1147 408.54 20.8108C409.762 22.4729 410.661 24.3725 411.237 26.5096C411.814 28.6466 412.102 30.8685 412.102 33.1751C412.102 36.4316 411.576 39.4167 410.525 42.1304C409.507 44.8102 407.913 46.9642 405.742 48.5924C403.571 50.1867 400.772 50.9839 397.346 50.9839H384.117C383.846 50.9839 383.608 50.8821 383.405 50.6786C383.201 50.475 383.099 50.2376 383.099 49.9662V16.3841C383.099 16.1127 383.201 15.8752 383.405 15.6717C383.608 15.4682 383.846 15.3664 384.117 15.3664H397.346ZM396.838 48.9486C399.958 48.9486 402.469 48.2532 404.368 46.8624C406.302 45.4377 407.709 43.5381 408.591 41.1636C409.507 38.7552 409.965 36.0924 409.965 33.1751C409.965 31.1059 409.711 29.1215 409.202 27.2219C408.727 25.3223 407.964 23.6432 406.912 22.1846C405.861 20.6921 404.504 19.5218 402.842 18.6737C401.18 17.8257 399.178 17.4017 396.838 17.4017H384.931L385.236 16.9946V49.4065L384.931 48.9486H396.838Z" fill="#9086D6"/>
<path fill-rule="evenodd" clip-rule="evenodd" d="M69.7194 31.2742C69.7194 14.0475 54.13 0.081543 34.9004 0.081543C15.6707 0.081543 0.0812988 14.0475 0.0812988 31.2742C0.0812988 48.5012 15.6707 62.467 34.9004 62.467C38.8641 62.467 42.668 61.8624 46.217 60.768C46.2518 60.7574 46.2823 60.7421 46.309 60.7231C47.5327 60.3855 48.6275 59.953 49.5502 59.4463L49.6575 59.5163C49.6651 59.521 49.6748 59.5218 49.6833 59.5184C49.6914 59.5155 49.7007 59.5159 49.7079 59.5201C56.4226 63.5682 65.7875 65.4076 68.7688 65.9143C69.0757 65.9669 69.2665 65.5895 69.0677 65.3499C65.6823 61.2747 64.4302 53.9261 63.9714 48.572C63.9646 48.494 63.9867 48.4168 64.0333 48.3536C67.6248 43.4461 69.7194 37.581 69.7194 31.2742ZM42.7731 29.1018C42.7731 28.2064 43.4999 27.4805 44.3967 27.4805H50.7272C51.6236 27.4805 52.3504 28.2064 52.3504 29.1018V43.5309H42.7731V29.1018ZM31.735 11.2681C30.8385 11.2681 30.1118 11.994 30.1118 12.8893V43.5309H39.6437V12.8893C39.6437 11.994 38.917 11.2681 38.0205 11.2681H31.735ZM17.4503 21.4819C17.4503 20.5865 18.177 19.8607 19.0735 19.8607H25.4043C26.3008 19.8607 27.0275 20.5865 27.0275 21.4819V43.5309H17.4503V21.4819ZM52.3504 46.125H17.6126V47.908H52.3504V46.125Z" fill="url(#paint0_linear)"/>
<path d="M46.2168 60.7674L46.2406 60.845H46.241L46.2168 60.7674ZM46.3089 60.7225L46.2877 60.6444L46.2737 60.6483L46.2622 60.6563L46.3089 60.7225ZM49.55 59.4458L49.5946 59.3779L49.5534 59.3512L49.511 59.3749L49.55 59.4458ZM49.6573 59.5157L49.7018 59.4479L49.6573 59.5157ZM49.6832 59.5183L49.6531 59.4428H49.6527L49.6832 59.5183ZM49.7078 59.52L49.7498 59.4504L49.7078 59.52ZM68.7686 65.9141L68.7822 65.8344L68.7686 65.9141ZM69.0675 65.3493L69.1299 65.2976L69.0675 65.3493ZM63.9713 48.5714L63.8903 48.5782L63.9713 48.5714ZM64.0332 48.353L63.9675 48.3051L64.0332 48.353ZM52.3502 43.5303V43.6113H52.4317V43.5303H52.3502ZM42.773 43.5303H42.692V43.6113H42.773V43.5303ZM30.1116 43.5303H30.0305V43.6113H30.1116V43.5303ZM39.6436 43.5303V43.6113H39.7248V43.5303H39.6436ZM27.0274 43.5303V43.6113H27.1086V43.5303H27.0274ZM17.4501 43.5303H17.369V43.6113H17.4501V43.5303ZM17.6124 46.1244V46.0434H17.5313V46.1244H17.6124ZM52.3502 46.1244H52.4317V46.0434H52.3502V46.1244ZM17.6124 47.9078H17.5313V47.9888H17.6124V47.9078ZM52.3502 47.9078V47.9888H52.4317V47.9078H52.3502ZM34.9002 0.162124C54.0938 0.162124 69.6383 14.0998 69.6383 31.2738H69.8007C69.8007 13.9942 54.1663 0 34.9002 0V0.162124ZM0.162327 31.2738C0.162327 14.0998 15.7068 0.162124 34.9002 0.162124V0C15.6342 0 0 13.9942 0 31.2738H0.162327ZM34.9002 62.3855C15.7068 62.3855 0.162327 48.4476 0.162327 31.2738H0C0 48.5536 15.6342 62.5474 34.9002 62.5474V62.3855ZM46.1927 60.6902C42.6513 61.7821 38.8556 62.3855 34.9002 62.3855V62.5474C38.8724 62.5474 42.6839 61.9415 46.2406 60.845L46.1927 60.6902ZM46.2622 60.6563C46.2427 60.6703 46.2194 60.6818 46.1927 60.6902L46.241 60.845C46.2834 60.8319 46.322 60.8128 46.3559 60.7886L46.2622 60.6563ZM49.511 59.3749C48.5947 59.8778 47.5059 60.3082 46.2877 60.6444L46.3305 60.8005C47.5593 60.4621 48.66 60.0271 49.589 59.5166L49.511 59.3749ZM49.7018 59.4479L49.5946 59.3779L49.5059 59.5136L49.6132 59.5836L49.7018 59.4479ZM49.6527 59.4428C49.6683 59.4364 49.6866 59.4381 49.7018 59.4479L49.6128 59.5836C49.6433 59.6031 49.6806 59.6065 49.7133 59.5933L49.6527 59.4428ZM49.7498 59.4504C49.7196 59.4326 49.684 59.4305 49.6531 59.4428L49.7129 59.5933C49.6984 59.5992 49.6811 59.5984 49.6658 59.5895L49.7498 59.4504ZM68.7822 65.8344C65.8013 65.3273 56.4505 63.4896 49.7498 59.4504L49.6658 59.5895C56.3949 63.6456 65.7734 65.4867 68.7546 65.9938L68.7822 65.8344ZM69.0052 65.4011C69.0815 65.4931 69.0837 65.6114 69.0357 65.7038C68.9883 65.795 68.8958 65.8535 68.7822 65.8344L68.7546 65.9938C68.9484 66.0269 69.1049 65.9226 69.1799 65.7784C69.2545 65.6351 69.2528 65.4456 69.1299 65.2976L69.0052 65.4011ZM63.8903 48.5782C64.1197 51.258 64.5484 54.439 65.3434 57.4605C66.1384 60.4812 67.3015 63.3505 69.0052 65.4011L69.1299 65.2976C67.4482 63.2734 66.2928 60.4307 65.5003 57.4194C64.7082 54.4097 64.2812 51.2389 64.0518 48.5646L63.8903 48.5782ZM63.9675 48.3051C63.9098 48.384 63.8818 48.4802 63.8903 48.5782L64.0518 48.5646C64.0472 48.5065 64.0637 48.4489 64.0989 48.401L63.9675 48.3051ZM69.6383 31.2738C69.6383 37.5621 67.5496 43.4107 63.9675 48.3051L64.0985 48.401C67.6997 43.4807 69.8007 37.5989 69.8007 31.2738H69.6383ZM44.3965 27.399C43.4552 27.399 42.692 28.1611 42.692 29.1013H42.8544C42.8544 28.2506 43.5447 27.5611 44.3965 27.5611V27.399ZM50.7271 27.399H44.3965V27.5611H50.7271V27.399ZM52.4317 29.1013C52.4317 28.1611 51.6684 27.399 50.7271 27.399V27.5611C51.579 27.5611 52.2693 28.2506 52.2693 29.1013H52.4317ZM52.4317 43.5303V29.1013H52.2693V43.5303H52.4317ZM42.773 43.6113H52.3502V43.4493H42.773V43.6113ZM42.692 29.1013V43.5303H42.8544V29.1013H42.692ZM30.1928 12.8889C30.1928 12.0383 30.8832 11.3487 31.7349 11.3487V11.1866C30.7936 11.1866 30.0305 11.9487 30.0305 12.8889H30.1928ZM30.1928 43.5303V12.8889H30.0305V43.5303H30.1928ZM39.6436 43.4493H30.1116V43.6113H39.6436V43.4493ZM39.5624 12.8889V43.5303H39.7248V12.8889H39.5624ZM38.0203 11.3487C38.8721 11.3487 39.5624 12.0383 39.5624 12.8889H39.7248C39.7248 11.9487 38.9617 11.1866 38.0203 11.1866V11.3487ZM31.7349 11.3487H38.0203V11.1866H31.7349V11.3487ZM19.0734 19.7792C18.1321 19.7792 17.369 20.5413 17.369 21.4815H17.5313C17.5313 20.6308 18.2217 19.9413 19.0734 19.9413V19.7792ZM25.4041 19.7792H19.0734V19.9413H25.4041V19.7792ZM27.1086 21.4815C27.1086 20.5413 26.3455 19.7792 25.4041 19.7792V19.9413C26.2559 19.9413 26.9462 20.6308 26.9462 21.4815H27.1086ZM27.1086 43.5303V21.4815H26.9462V43.5303H27.1086ZM17.4501 43.6113H27.0274V43.4493H17.4501V43.6113ZM17.369 21.4815V43.5303H17.5313V21.4815H17.369ZM17.6124 46.2054H52.3502V46.0434H17.6124V46.2054ZM17.6936 47.9078V46.1244H17.5313V47.9078H17.6936ZM52.3502 47.8268H17.6124V47.9888H52.3502V47.8268ZM52.2693 46.1244V47.9078H52.4317V46.1244H52.2693Z" fill="#9A8D8D"/>
<path d="M46.2168 60.7674L46.2406 60.845H46.241L46.2168 60.7674ZM46.3089 60.7225L46.2877 60.6444L46.2737 60.6483L46.2622 60.6563L46.3089 60.7225ZM49.55 59.4458L49.5946 59.3779L49.5534 59.3512L49.511 59.3749L49.55 59.4458ZM49.6573 59.5157L49.7018 59.4479L49.6573 59.5157ZM49.6832 59.5183L49.6531 59.4428H49.6527L49.6832 59.5183ZM49.7078 59.52L49.7498 59.4504L49.7078 59.52ZM68.7686 65.9141L68.7822 65.8344L68.7686 65.9141ZM69.0675 65.3493L69.1299 65.2976L69.0675 65.3493ZM63.9713 48.5714L63.8903 48.5782L63.9713 48.5714ZM64.0332 48.353L63.9675 48.3051L64.0332 48.353ZM52.3502 43.5303V43.6113H52.4317V43.5303H52.3502ZM42.773 43.5303H42.692V43.6113H42.773V43.5303ZM30.1116 43.5303H30.0305V43.6113H30.1116V43.5303ZM39.6436 43.5303V43.6113H39.7248V43.5303H39.6436ZM27.0274 43.5303V43.6113H27.1086V43.5303H27.0274ZM17.4501 43.5303H17.369V43.6113H17.4501V43.5303ZM17.6124 46.1244V46.0434H17.5313V46.1244H17.6124ZM52.3502 46.1244H52.4317V46.0434H52.3502V46.1244ZM17.6124 47.9078H17.5313V47.9888H17.6124V47.9078ZM52.3502 47.9078V47.9888H52.4317V47.9078H52.3502ZM34.9002 0.162124C54.0938 0.162124 69.6383 14.0998 69.6383 31.2738H69.8007C69.8007 13.9942 54.1663 0 34.9002 0V0.162124ZM0.162327 31.2738C0.162327 14.0998 15.7068 0.162124 34.9002 0.162124V0C15.6342 0 0 13.9942 0 31.2738H0.162327ZM34.9002 62.3855C15.7068 62.3855 0.162327 48.4476 0.162327 31.2738H0C0 48.5536 15.6342 62.5474 34.9002 62.5474V62.3855ZM46.1927 60.6902C42.6513 61.7821 38.8556 62.3855 34.9002 62.3855V62.5474C38.8724 62.5474 42.6839 61.9415 46.2406 60.845L46.1927 60.6902ZM46.2622 60.6563C46.2427 60.6703 46.2194 60.6818 46.1927 60.6902L46.241 60.845C46.2834 60.8319 46.322 60.8128 46.3559 60.7886L46.2622 60.6563ZM49.511 59.3749C48.5947 59.8778 47.5059 60.3082 46.2877 60.6444L46.3305 60.8005C47.5593 60.4621 48.66 60.0271 49.589 59.5166L49.511 59.3749ZM49.7018 59.4479L49.5946 59.3779L49.5059 59.5136L49.6132 59.5836L49.7018 59.4479ZM49.6527 59.4428C49.6683 59.4364 49.6866 59.4381 49.7018 59.4479L49.6128 59.5836C49.6433 59.6031 49.6806 59.6065 49.7133 59.5933L49.6527 59.4428ZM49.7498 59.4504C49.7196 59.4326 49.684 59.4305 49.6531 59.4428L49.7129 59.5933C49.6984 59.5992 49.6811 59.5984 49.6658 59.5895L49.7498 59.4504ZM68.7822 65.8344C65.8013 65.3273 56.4505 63.4896 49.7498 59.4504L49.6658 59.5895C56.3949 63.6456 65.7734 65.4867 68.7546 65.9938L68.7822 65.8344ZM69.0052 65.4011C69.0815 65.4931 69.0837 65.6114 69.0357 65.7038C68.9883 65.795 68.8958 65.8535 68.7822 65.8344L68.7546 65.9938C68.9484 66.0269 69.1049 65.9226 69.1799 65.7784C69.2545 65.6351 69.2528 65.4456 69.1299 65.2976L69.0052 65.4011ZM63.8903 48.5782C64.1197 51.258 64.5484 54.439 65.3434 57.4605C66.1384 60.4812 67.3015 63.3505 69.0052 65.4011L69.1299 65.2976C67.4482 63.2734 66.2928 60.4307 65.5003 57.4194C64.7082 54.4097 64.2812 51.2389 64.0518 48.5646L63.8903 48.5782ZM63.9675 48.3051C63.9098 48.384 63.8818 48.4802 63.8903 48.5782L64.0518 48.5646C64.0472 48.5065 64.0637 48.4489 64.0989 48.401L63.9675 48.3051ZM69.6383 31.2738C69.6383 37.5621 67.5496 43.4107 63.9675 48.3051L64.0985 48.401C67.6997 43.4807 69.8007 37.5989 69.8007 31.2738H69.6383ZM44.3965 27.399C43.4552 27.399 42.692 28.1611 42.692 29.1013H42.8544C42.8544 28.2506 43.5447 27.5611 44.3965 27.5611V27.399ZM50.7271 27.399H44.3965V27.5611H50.7271V27.399ZM52.4317 29.1013C52.4317 28.1611 51.6684 27.399 50.7271 27.399V27.5611C51.579 27.5611 52.2693 28.2506 52.2693 29.1013H52.4317ZM52.4317 43.5303V29.1013H52.2693V43.5303H52.4317ZM42.773 43.6113H52.3502V43.4493H42.773V43.6113ZM42.692 29.1013V43.5303H42.8544V29.1013H42.692ZM30.1928 12.8889C30.1928 12.0383 30.8832 11.3487 31.7349 11.3487V11.1866C30.7936 11.1866 30.0305 11.9487 30.0305 12.8889H30.1928ZM30.1928 43.5303V12.8889H30.0305V43.5303H30.1928ZM39.6436 43.4493H30.1116V43.6113H39.6436V43.4493ZM39.5624 12.8889V43.5303H39.7248V12.8889H39.5624ZM38.0203 11.3487C38.8721 11.3487 39.5624 12.0383 39.5624 12.8889H39.7248C39.7248 11.9487 38.9617 11.1866 38.0203 11.1866V11.3487ZM31.7349 11.3487H38.0203V11.1866H31.7349V11.3487ZM19.0734 19.7792C18.1321 19.7792 17.369 20.5413 17.369 21.4815H17.5313C17.5313 20.6308 18.2217 19.9413 19.0734 19.9413V19.7792ZM25.4041 19.7792H19.0734V19.9413H25.4041V19.7792ZM27.1086 21.4815C27.1086 20.5413 26.3455 19.7792 25.4041 19.7792V19.9413C26.2559 19.9413 26.9462 20.6308 26.9462 21.4815H27.1086ZM27.1086 43.5303V21.4815H26.9462V43.5303H27.1086ZM17.4501 43.6113H27.0274V43.4493H17.4501V43.6113ZM17.369 21.4815V43.5303H17.5313V21.4815H17.369ZM17.6124 46.2054H52.3502V46.0434H17.6124V46.2054ZM17.6936 47.9078V46.1244H17.5313V47.9078H17.6936ZM52.3502 47.8268H17.6124V47.9888H52.3502V47.8268ZM52.2693 46.1244V47.9078H52.4317V46.1244H52.2693Z" fill="#9A8D8D"/>
<defs>
<linearGradient id="paint0_linear" x1="34.9004" y1="0.081543" x2="34.9004" y2="65.9194" gradientUnits="userSpaceOnUse">
<stop stop-color="#7B8CDE"/>
<stop offset="1" stop-color="#A480CF"/>
</linearGradient>
</defs>
</svg>
