<svg width="219" height="74" viewBox="0 0 219 74" fill="none" xmlns="http://www.w3.org/2000/svg">
<g clip-path="url(#clip0_845_1788)">
<path d="M19.1533 2.55063H20.2252L22.369 6.16594H22.4596L24.6035 2.55063H25.6754L22.8824 7.10379V10.2956H21.9463V7.10379L19.1533 2.55063ZM28.8319 10.4166C28.3085 10.4166 27.8493 10.2918 27.4543 10.0422C27.0617 9.79263 26.7547 9.44341 26.5333 8.99465C26.3144 8.54589 26.2049 8.02152 26.2049 7.42147C26.2049 6.81641 26.3144 6.28822 26.5333 5.83693C26.7547 5.38565 27.0617 5.03521 27.4543 4.78562C27.8493 4.53603 28.3085 4.41122 28.8319 4.41122C29.3553 4.41122 29.8132 4.53603 30.2058 4.78562C30.6009 5.03521 30.9078 5.38565 31.1267 5.83693C31.3482 6.28822 31.4589 6.81641 31.4589 7.42147C31.4589 8.02152 31.3482 8.54589 31.1267 8.99465C30.9078 9.44341 30.6009 9.79263 30.2058 10.0422C29.8132 10.2918 29.3553 10.4166 28.8319 10.4166ZM28.8319 9.61483C29.2294 9.61483 29.5566 9.51278 29.8132 9.30854C30.0699 9.10436 30.2599 8.83584 30.3831 8.50303C30.5064 8.17022 30.5681 7.80975 30.5681 7.42147C30.5681 7.0332 30.5064 6.67143 30.3831 6.33612C30.2599 6.00081 30.0699 5.72978 29.8132 5.52305C29.5566 5.31631 29.2294 5.21295 28.8319 5.21295C28.4344 5.21295 28.1072 5.31631 27.8506 5.52305C27.5939 5.72978 27.4039 6.00081 27.2807 6.33612C27.1574 6.67143 27.0957 7.0332 27.0957 7.42147C27.0957 7.80975 27.1574 8.17022 27.2807 8.50303C27.4039 8.83584 27.5939 9.10436 27.8506 9.30854C28.1072 9.51278 28.4344 9.61483 28.8319 9.61483ZM37.0036 7.92068V4.48686H37.8943V10.2956H37.0036V9.31233H36.9432C36.8074 9.6073 36.596 9.85813 36.3091 10.0649C36.0223 10.2691 35.6599 10.3712 35.2221 10.3712C34.8597 10.3712 34.5377 10.2918 34.2558 10.133C33.974 9.97158 33.7526 9.72956 33.5916 9.40686C33.4305 9.08165 33.35 8.67194 33.35 8.17782V4.48686H34.2408V8.11733C34.2408 8.54087 34.359 8.87869 34.5956 9.13081C34.8346 9.38292 35.139 9.50898 35.509 9.50898C35.7304 9.50898 35.9556 9.45223 36.1846 9.33878C36.416 9.22533 36.6098 9.0514 36.7658 8.81692C36.9243 8.58244 37.0036 8.28367 37.0036 7.92068ZM40.0572 10.2956V4.48686H40.9178V5.36421H40.9782C41.0839 5.0768 41.2751 4.8436 41.5519 4.6646C41.8287 4.4856 42.1407 4.3961 42.4879 4.3961C42.5534 4.3961 42.6351 4.39736 42.7333 4.39988C42.8314 4.4024 42.9056 4.40618 42.956 4.41122V5.31884C42.9257 5.31128 42.8566 5.29993 42.7484 5.2848C42.6427 5.26715 42.5307 5.25833 42.4125 5.25833C42.1307 5.25833 41.879 5.31758 41.6576 5.43607C41.4387 5.55204 41.2651 5.7134 41.1367 5.92013C41.0109 6.12434 40.948 6.35755 40.948 6.61976V10.2956H40.0572ZM48.1848 10.2956V2.55063H52.8197V3.3826H49.1208V5.99955H52.4725V6.83153H49.1208V10.2956H48.1848ZM54.7713 10.2956V4.48686H55.6318V5.36421H55.6922C55.7979 5.0768 55.9891 4.8436 56.2659 4.6646C56.5427 4.4856 56.8547 4.3961 57.2019 4.3961C57.2673 4.3961 57.3491 4.39736 57.4472 4.39988C57.5454 4.4024 57.6196 4.40618 57.67 4.41122V5.31884C57.6398 5.31128 57.5705 5.29993 57.4624 5.2848C57.3567 5.26715 57.2447 5.25833 57.1264 5.25833C56.8446 5.25833 56.593 5.31758 56.3716 5.43607C56.1526 5.55204 55.979 5.7134 55.8507 5.92013C55.7249 6.12434 55.662 6.35755 55.662 6.61976V10.2956H54.7713ZM59.2573 10.2956V4.48686H60.148V10.2956H59.2573ZM59.7102 3.51874C59.5366 3.51874 59.3868 3.45949 59.261 3.341C59.1378 3.22251 59.0761 3.08007 59.0761 2.91367C59.0761 2.74727 59.1378 2.60483 59.261 2.48634C59.3868 2.36785 59.5366 2.30859 59.7102 2.30859C59.8838 2.30859 60.0323 2.36785 60.1556 2.48634C60.2814 2.60483 60.3443 2.74727 60.3443 2.91367C60.3443 3.08007 60.2814 3.22251 60.1556 3.341C60.0323 3.45949 59.8838 3.51874 59.7102 3.51874ZM64.7415 10.4166C64.183 10.4166 63.7011 10.2931 63.296 10.046C62.8934 9.79636 62.5827 9.44849 62.3638 9.00224C62.1474 8.55348 62.0392 8.03155 62.0392 7.43659C62.0392 6.84163 62.1474 6.31721 62.3638 5.86341C62.5827 5.40708 62.8871 5.05159 63.2771 4.79696C63.6697 4.5398 64.1276 4.41122 64.651 4.41122C64.9528 4.41122 65.2508 4.46165 65.5456 4.56249C65.8397 4.66334 66.1082 4.82721 66.3497 5.05412C66.5912 5.2785 66.7838 5.576 66.927 5.9466C67.0703 6.31721 67.1422 6.77355 67.1422 7.31556V7.69373H62.6732V6.92226H66.236C66.236 6.59454 66.1711 6.30208 66.0401 6.04492C65.9117 5.78777 65.728 5.58482 65.4891 5.43607C65.2521 5.28733 64.9734 5.21295 64.651 5.21295C64.2965 5.21295 63.9892 5.30119 63.7301 5.47767C63.4734 5.65163 63.2759 5.87853 63.1375 6.15838C62.9991 6.43824 62.9299 6.73823 62.9299 7.05842V7.57275C62.9299 8.01141 63.0054 8.38328 63.1564 8.68835C63.3099 8.99085 63.5225 9.22154 63.7943 9.38041C64.066 9.53671 64.3819 9.61483 64.7415 9.61483C64.9753 9.61483 65.1872 9.58208 65.3754 9.51651C65.5668 9.44849 65.7319 9.3476 65.8699 9.21401C66.0087 9.07785 66.1153 8.90894 66.1911 8.70727L67.0516 8.94928C66.9611 9.24174 66.8089 9.49888 66.595 9.72075C66.3812 9.94011 66.1166 10.1115 65.8025 10.2351C65.4878 10.3561 65.1339 10.4166 64.7415 10.4166ZM69.9192 6.80129V10.2956H69.0284V4.48686H69.889V5.39447H69.9648C70.1003 5.0995 70.3071 4.86251 70.5833 4.68351C70.8601 4.50199 71.2178 4.41122 71.6558 4.41122C72.0482 4.41122 72.3918 4.4919 72.6859 4.65325C72.9801 4.81209 73.2093 5.05412 73.3731 5.37934C73.5362 5.70205 73.6184 6.11048 73.6184 6.60464V10.2956H72.7277V6.66513C72.7277 6.2088 72.6088 5.85332 72.3725 5.59869C72.1362 5.34153 71.8112 5.21295 71.3989 5.21295C71.1144 5.21295 70.8601 5.27472 70.6366 5.39825C70.415 5.52179 70.2403 5.70205 70.1119 5.93904C69.9834 6.17603 69.9192 6.46346 69.9192 6.80129ZM77.9663 10.4166C77.4834 10.4166 77.0569 10.2943 76.687 10.0498C76.3171 9.80266 76.0274 9.4548 75.8187 9.00597C75.61 8.5547 75.5053 8.02152 75.5053 7.40635C75.5053 6.7962 75.61 6.26678 75.8187 5.81802C76.0274 5.36926 76.3184 5.0226 76.6908 4.77805C77.0633 4.5335 77.4936 4.41122 77.9817 4.41122C78.3587 4.41122 78.6574 4.47425 78.8764 4.60031C79.0973 4.72385 79.2662 4.86503 79.3818 5.02387C79.5 5.18017 79.5918 5.30875 79.6573 5.4096H79.7331V2.55063H80.6239V10.2956H79.7633V9.40306H79.6573C79.5918 9.50898 79.4987 9.64257 79.3779 9.80395C79.2572 9.96276 79.0851 10.1052 78.8609 10.2313C78.6368 10.3548 78.3388 10.4166 77.9663 10.4166ZM78.0871 9.61483C78.4448 9.61483 78.7466 9.52159 78.9932 9.33498C79.2399 9.14593 79.4274 8.885 79.5552 8.55219C79.6836 8.21688 79.7479 7.82989 79.7479 7.39123C79.7479 6.95759 79.6849 6.57813 79.559 6.25292C79.4332 5.92517 79.2469 5.67054 79.0003 5.48901C78.7543 5.30497 78.4493 5.21295 78.0871 5.21295C77.7101 5.21295 77.3954 5.31001 77.1436 5.50414C76.8944 5.69575 76.7069 5.95668 76.581 6.28696C76.4577 6.61468 76.3961 6.98281 76.3961 7.39123C76.3961 7.80466 76.459 8.18033 76.5849 8.51815C76.7133 8.85347 76.9021 9.12071 77.1513 9.31986C77.4031 9.51651 77.7146 9.61483 78.0871 9.61483Z" fill="#8E8D94"/>
<path d="M6.59961 28.627C6.59961 21.6428 12.2505 15.981 19.2211 15.981V34.2844H6.59961V28.627Z" fill="#26252A" stroke="#26252A" stroke-width="0.805851"/>
<path d="M19.2201 34.2842H6.59863V54.9536H19.2201V34.2842Z" fill="#26252A" stroke="#26252A" stroke-width="0.805851"/>
<path fill-rule="evenodd" clip-rule="evenodd" d="M6.82758 63.0219C6.67723 62.2415 6.59849 61.4354 6.59849 60.611V54.9536H19.22V73.2568C16.1636 73.2568 13.3609 72.1686 11.1771 70.3573C8.99844 71.8115 5.50491 73.1937 1.28418 72.4254C2.44668 71.9261 6.93065 68.9307 6.76457 62.9406C6.78468 62.9683 6.80574 62.9954 6.82758 63.0219Z" fill="#26252A"/>
<path d="M6.82811 63.0219L6.62856 63.187L7.08217 62.9727L6.82811 63.0219ZM6.59902 54.9536V54.6943H6.34022V54.9536H6.59902ZM19.2205 54.9536H19.4792V54.6943H19.2205V54.9536ZM19.2205 73.2568V73.5161H19.4792V73.2568H19.2205ZM11.1776 70.3572L11.3427 70.1578L11.1944 70.0349L11.0341 70.1417L11.1776 70.3572ZM1.28471 72.4254L1.18277 72.1866L0.392578 72.5258L1.23842 72.6802L1.28471 72.4254ZM6.7651 62.9406L6.97434 62.7881L6.48323 62.1115L6.50641 62.9477L6.7651 62.9406ZM6.34022 60.611C6.34022 61.452 6.42055 62.2745 6.57398 63.071L7.08217 62.9727C6.93491 62.2084 6.85778 61.4189 6.85778 60.611H6.34022ZM6.34022 54.9536V60.611H6.85778V54.9536H6.34022ZM19.2205 54.6943H6.59902V55.2129H19.2205V54.6943ZM19.4792 73.2568V54.9536H18.9617V73.2568H19.4792ZM11.0126 70.5574C13.2411 72.4054 16.1016 73.5161 19.2205 73.5161V72.9981C16.2265 72.9981 13.4818 71.9318 11.3427 70.1578L11.0126 70.5574ZM1.23842 72.6802C5.54157 73.464 9.1023 72.0541 11.3211 70.5735L11.0341 70.1417C8.89557 71.5689 5.4693 72.9241 1.331 72.1699L1.23842 72.6802ZM6.50641 62.9477C6.58746 65.8716 5.53525 68.0594 4.32105 69.5799C3.10176 71.1069 1.72438 71.9544 1.18277 72.1866L1.38664 72.6635C2.00754 72.3971 3.45339 71.4968 4.72518 69.9042C6.00206 68.3045 7.10876 66.0003 7.02373 62.9334L6.50641 62.9477ZM7.02758 62.8567C7.00908 62.8343 6.9913 62.8114 6.97434 62.7881L6.5558 63.093C6.57911 63.1252 6.60339 63.1565 6.62856 63.187L7.02758 62.8567Z" fill="#26252A"/>
<path d="M206.03 15.981H19.2207V73.2573H206.03V15.981Z" fill="#26252A"/>
<path d="M31.5734 34.9877C31.5734 36.3406 31.3297 37.5098 30.8421 38.4953C30.3544 39.4807 29.6856 40.2406 28.8354 40.7752C27.9852 41.3096 27.0142 41.5769 25.9223 41.5769C24.8304 41.5769 23.8594 41.3096 23.0092 40.7752C22.159 40.2406 21.4901 39.4807 21.0026 38.4953C20.5149 37.5098 20.2711 36.3406 20.2711 34.9877C20.2711 33.6348 20.5149 32.4656 21.0026 31.4802C21.4901 30.4947 22.159 29.7348 23.0092 29.2003C23.8594 28.6658 24.8304 28.3986 25.9223 28.3986C27.0142 28.3986 27.9852 28.6658 28.8354 29.2003C29.6856 29.7348 30.3544 30.4947 30.8421 31.4802C31.3297 32.4656 31.5734 33.6348 31.5734 34.9877ZM30.0731 34.9877C30.0731 33.877 29.8877 32.9395 29.5168 32.1754C29.1501 31.4113 28.652 30.8329 28.0228 30.4405C27.3976 30.0479 26.6975 29.8517 25.9223 29.8517C25.1471 29.8517 24.4449 30.0479 23.8156 30.4405C23.1905 30.8329 22.6924 31.4113 22.3216 32.1754C21.9548 32.9395 21.7714 33.877 21.7714 34.9877C21.7714 36.0984 21.9548 37.0359 22.3216 37.8C22.6924 38.5641 23.1905 39.1425 23.8156 39.535C24.4449 39.9275 25.1471 40.1237 25.9223 40.1237C26.6975 40.1237 27.3976 39.9275 28.0228 39.535C28.652 39.1425 29.1501 38.5641 29.5168 37.8C29.8877 37.0359 30.0731 36.0984 30.0731 34.9877ZM35.3675 35.614V41.4015H33.8922V31.7808H35.3175V33.2841H35.4425C35.6676 32.7955 36.0093 32.403 36.4677 32.1065C36.9262 31.8059 37.518 31.6555 38.2431 31.6555C38.8932 31.6555 39.4621 31.7892 39.9497 32.0564C40.4373 32.3195 40.8165 32.7204 41.0874 33.259C41.3583 33.7935 41.4938 34.4699 41.4938 35.2884V41.4015H40.0185V35.3886C40.0185 34.6328 39.8226 34.044 39.4309 33.6223C39.0391 33.1963 38.5015 32.9834 37.818 32.9834C37.3471 32.9834 36.9262 33.0857 36.5553 33.2903C36.1885 33.4949 35.8989 33.7935 35.6863 34.186C35.4738 34.5785 35.3675 35.0545 35.3675 35.614ZM45.5769 28.5739V41.4015H44.1016V28.5739H45.5769ZM49.1412 45.0093C48.8912 45.0093 48.6682 44.9883 48.4723 44.9466C48.2765 44.909 48.141 44.8714 48.066 44.8338L48.4411 43.5311C48.7995 43.623 49.1162 43.6563 49.3913 43.6312C49.6663 43.6062 49.9102 43.4831 50.1227 43.2618C50.3394 43.0446 50.5374 42.6918 50.7166 42.2032L50.9916 41.4516L47.4409 31.7808H49.0412L51.6918 39.4473H51.7918L54.4423 31.7808H56.0427L51.9668 42.8045C51.7834 43.3014 51.5563 43.7127 51.2854 44.0384C51.0145 44.3683 50.6999 44.6126 50.3415 44.7712C49.9872 44.9299 49.5871 45.0093 49.1412 45.0093ZM66.6657 41.6019C65.7987 41.6019 65.0383 41.3952 64.3839 40.9819C63.7339 40.5684 63.2254 39.9901 62.8587 39.2468C62.4961 38.5036 62.3148 37.6351 62.3148 36.6413C62.3148 35.6391 62.4961 34.7643 62.8587 34.0168C63.2254 33.2694 63.7339 32.689 64.3839 32.2757C65.0383 31.8622 65.7987 31.6555 66.6657 31.6555C67.5327 31.6555 68.2912 31.8622 68.9411 32.2757C69.5956 32.689 70.1042 33.2694 70.4664 34.0168C70.8331 34.7643 71.0168 35.6391 71.0168 36.6413C71.0168 37.6351 70.8331 38.5036 70.4664 39.2468C70.1042 39.9901 69.5956 40.5684 68.9411 40.9819C68.2912 41.3952 67.5327 41.6019 66.6657 41.6019ZM66.6657 40.2741C67.324 40.2741 67.866 40.1049 68.2912 39.7667C68.7164 39.4285 69.0311 38.9838 69.2353 38.4326C69.4395 37.8815 69.5416 37.2843 69.5416 36.6413C69.5416 35.9982 69.4395 35.399 69.2353 34.8437C69.0311 34.2883 68.7164 33.8394 68.2912 33.497C67.866 33.1546 67.324 32.9834 66.6657 32.9834C66.0074 32.9834 65.4654 33.1546 65.0402 33.497C64.6151 33.8394 64.3004 34.2883 64.0965 34.8437C63.8923 35.399 63.7901 35.9982 63.7901 36.6413C63.7901 37.2843 63.8923 37.8815 64.0965 38.4326C64.3004 38.9838 64.6151 39.4285 65.0402 39.7667C65.4654 40.1049 66.0074 40.2741 66.6657 40.2741ZM74.6557 35.614V41.4015H73.1805V31.7808H74.6062V33.2841H74.7308C74.9563 32.7955 75.2979 32.403 75.7565 32.1065C76.2144 31.8059 76.8065 31.6555 77.5316 31.6555C78.1815 31.6555 78.7505 31.7892 79.238 32.0564C79.7254 32.3195 80.105 32.7204 80.376 33.259C80.647 33.7935 80.7819 34.4699 80.7819 35.2884V41.4015H79.3067V35.3886C79.3067 34.6328 79.1108 34.044 78.7191 33.6223C78.3273 33.1963 77.7898 32.9834 77.1064 32.9834C76.6357 32.9834 76.2144 33.0857 75.8438 33.2903C75.4771 33.4949 75.1875 33.7935 74.9749 34.186C74.7623 34.5785 74.6557 35.0545 74.6557 35.614ZM87.4161 41.6019C86.4907 41.6019 85.6924 41.3973 85.0219 40.9881C84.3546 40.5747 83.8402 39.9985 83.4773 39.2594C83.119 38.5161 82.9398 37.6518 82.9398 36.6663C82.9398 35.6809 83.119 34.8123 83.4773 34.0607C83.8402 33.3049 84.3444 32.7162 84.9904 32.2945C85.6404 31.8685 86.3988 31.6555 87.2658 31.6555C87.7661 31.6555 88.26 31.7391 88.7475 31.9061C89.2349 32.0731 89.6787 32.3445 90.0788 32.7204C90.4789 33.092 90.7981 33.5847 91.0357 34.1985C91.2727 34.8123 91.3915 35.5681 91.3915 36.4659V37.0922H83.9905V35.8145H89.8913C89.8913 35.2716 89.7834 34.7873 89.5663 34.3614C89.3537 33.9354 89.0493 33.5993 88.6537 33.353C88.2619 33.1066 87.7995 32.9834 87.2658 32.9834C86.6782 32.9834 86.1696 33.1296 85.7406 33.4218C85.3154 33.71 84.9885 34.0858 84.7592 34.5493C84.53 35.0128 84.415 35.5097 84.415 36.0399V36.8918C84.415 37.6183 84.5402 38.2343 84.7901 38.7395C85.0444 39.2406 85.397 39.6226 85.8465 39.8858C86.2967 40.1446 86.8201 40.2741 87.4161 40.2741C87.8034 40.2741 88.1534 40.2198 88.4662 40.1112C88.7828 39.9985 89.0557 39.8314 89.285 39.6102C89.5143 39.3847 89.6916 39.1049 89.8161 38.7709L91.2419 39.1717C91.0916 39.6561 90.8399 40.082 90.4853 40.4494C90.1308 40.8128 89.6935 41.0967 89.1726 41.3013C88.6518 41.5017 88.0661 41.6019 87.4161 41.6019ZM100.586 41.4015L97.661 31.7808H99.2113L101.286 39.1467H101.387L103.437 31.7808H105.013L107.038 39.1216H107.138L109.213 31.7808H110.764L107.838 41.4015H106.388L104.287 34.0106H104.137L102.036 41.4015H100.586ZM115.451 41.6269C114.843 41.6269 114.291 41.5121 113.795 41.2825C113.299 41.0487 112.905 40.7125 112.613 40.2741C112.322 39.8314 112.176 39.297 112.176 38.6706C112.176 38.1194 112.284 37.6726 112.501 37.3302C112.717 36.9837 113.007 36.7123 113.37 36.516C113.732 36.3197 114.132 36.1736 114.57 36.0775C115.012 35.9773 115.456 35.898 115.902 35.8396C116.485 35.7644 116.958 35.708 117.321 35.6704C117.688 35.6287 117.954 35.5598 118.121 35.4637C118.292 35.3677 118.377 35.2007 118.377 34.9626V34.9126C118.377 34.2946 118.208 33.8143 117.871 33.472C117.537 33.1296 117.031 32.9583 116.352 32.9583C115.647 32.9583 115.095 33.1128 114.695 33.4218C114.295 33.7308 114.013 34.0607 113.851 34.4115L112.451 33.9104C112.701 33.3258 113.034 32.8707 113.451 32.545C113.872 32.2151 114.331 31.9855 114.826 31.856C115.327 31.7223 115.818 31.6555 116.302 31.6555C116.61 31.6555 116.964 31.6931 117.365 31.7683C117.768 31.8393 118.158 31.9875 118.533 32.213C118.912 32.4385 119.227 32.7788 119.477 33.2339C119.727 33.6891 119.853 34.2988 119.853 35.0629V41.4015H118.377V40.0987H118.302C118.202 40.3075 118.035 40.5308 117.802 40.7689C117.569 41.0069 117.258 41.2094 116.871 41.3764C116.483 41.5435 116.01 41.6269 115.451 41.6269ZM115.677 40.2991C116.26 40.2991 116.752 40.1843 117.152 39.9546C117.556 39.725 117.86 39.4285 118.065 39.0652C118.273 38.7019 118.377 38.3199 118.377 37.919V36.5661C118.314 36.6413 118.177 36.7102 117.964 36.7728C117.756 36.8312 117.514 36.8835 117.239 36.9294C116.968 36.9711 116.704 37.0087 116.446 37.0421C116.191 37.0714 115.985 37.0964 115.826 37.1173C115.443 37.1674 115.085 37.2488 114.751 37.3616C114.422 37.4701 114.155 37.6351 113.951 37.8564C113.751 38.0735 113.651 38.37 113.651 38.7458C113.651 39.2594 113.841 39.6477 114.22 39.9108C114.604 40.1697 115.089 40.2991 115.677 40.2991ZM123.064 45.0093C122.813 45.0093 122.59 44.9883 122.394 44.9466C122.199 44.909 122.063 44.8714 121.988 44.8338L122.364 43.5311C122.722 43.623 123.039 43.6563 123.313 43.6312C123.588 43.6062 123.832 43.4831 124.045 43.2618C124.261 43.0446 124.46 42.6918 124.639 42.2032L124.914 41.4516L121.363 31.7808H122.963L125.614 39.4473H125.714L128.365 31.7808H129.965L125.889 42.8045C125.706 43.3014 125.478 43.7127 125.207 44.0384C124.937 44.3683 124.622 44.6126 124.264 44.7712C123.909 44.9299 123.509 45.0093 123.064 45.0093ZM140.863 31.7808V33.0335H135.887V31.7808H140.863ZM137.337 29.4759H138.812V38.6456C138.812 39.0631 138.873 39.3763 138.994 39.5851C139.119 39.7897 139.277 39.9275 139.469 39.9985C139.665 40.0653 139.871 40.0987 140.088 40.0987C140.25 40.0987 140.384 40.0903 140.488 40.0737C140.592 40.0527 140.676 40.0361 140.738 40.0235L141.038 41.3514C140.938 41.389 140.798 41.4266 140.619 41.4641C140.44 41.5059 140.213 41.5268 139.938 41.5268C139.521 41.5268 139.113 41.437 138.713 41.2575C138.317 41.0779 137.987 40.8044 137.725 40.4369C137.466 40.0695 137.337 39.606 137.337 39.0464V29.4759ZM146.792 41.6019C145.925 41.6019 145.165 41.3952 144.51 40.9819C143.86 40.5684 143.352 39.9901 142.985 39.2468C142.622 38.5036 142.441 37.6351 142.441 36.6413C142.441 35.6391 142.622 34.7643 142.985 34.0168C143.352 33.2694 143.86 32.689 144.51 32.2757C145.165 31.8622 145.925 31.6555 146.792 31.6555C147.658 31.6555 148.417 31.8622 149.068 32.2757C149.722 32.689 150.23 33.2694 150.593 34.0168C150.96 34.7643 151.143 35.6391 151.143 36.6413C151.143 37.6351 150.96 38.5036 150.593 39.2468C150.23 39.9901 149.722 40.5684 149.068 40.9819C148.417 41.3952 147.658 41.6019 146.792 41.6019ZM146.792 40.2741C147.45 40.2741 147.992 40.1049 148.417 39.7667C148.842 39.4285 149.157 38.9838 149.361 38.4326C149.565 37.8815 149.667 37.2843 149.667 36.6413C149.667 35.9982 149.565 35.399 149.361 34.8437C149.157 34.2883 148.842 33.8394 148.417 33.497C147.992 33.1546 147.45 32.9834 146.792 32.9834C146.133 32.9834 145.592 33.1546 145.167 33.497C144.741 33.8394 144.427 34.2883 144.223 34.8437C144.018 35.399 143.916 35.9982 143.916 36.6413C143.916 37.2843 144.018 37.8815 144.223 38.4326C144.427 38.9838 144.741 39.4285 145.167 39.7667C145.592 40.1049 146.133 40.2741 146.792 40.2741ZM162.446 31.7808V33.0335H157.269V31.7808H162.446ZM158.82 41.4015V30.4529C158.82 29.9018 158.949 29.4425 159.208 29.075C159.466 28.7076 159.802 28.432 160.214 28.2482C160.626 28.0645 161.062 27.9727 161.52 27.9727C161.883 27.9727 162.179 28.0019 162.408 28.0603C162.637 28.1188 162.808 28.173 162.921 28.2232L162.496 29.5009C162.421 29.4759 162.317 29.4445 162.183 29.407C162.054 29.3694 161.883 29.3506 161.671 29.3506C161.183 29.3506 160.831 29.4738 160.614 29.7202C160.402 29.9665 160.295 30.3277 160.295 30.8037V41.4015H158.82ZM164.425 41.4015V31.7808H165.9V41.4015H164.425ZM165.175 30.1773C164.888 30.1773 164.64 30.0793 164.432 29.883C164.227 29.6868 164.125 29.4508 164.125 29.1752C164.125 28.8997 164.227 28.6637 164.432 28.4674C164.64 28.2712 164.888 28.173 165.175 28.173C165.463 28.173 165.709 28.2712 165.913 28.4674C166.121 28.6637 166.226 28.8997 166.226 29.1752C166.226 29.4508 166.121 29.6868 165.913 29.883C165.709 30.0793 165.463 30.1773 165.175 30.1773ZM169.99 35.614V41.4015H168.515V31.7808H169.94V33.2841H170.065C170.29 32.7955 170.632 32.403 171.09 32.1065C171.549 31.8059 172.14 31.6555 172.865 31.6555C173.516 31.6555 174.085 31.7892 174.572 32.0564C175.06 32.3195 175.439 32.7204 175.71 33.259C175.981 33.7935 176.116 34.4699 176.116 35.2884V41.4015H174.641V35.3886C174.641 34.6328 174.445 34.044 174.053 33.6223C173.662 33.1963 173.124 32.9834 172.441 32.9834C171.969 32.9834 171.549 33.0857 171.178 33.2903C170.811 33.4949 170.521 33.7935 170.309 34.186C170.096 34.5785 169.99 35.0545 169.99 35.614ZM182.35 41.6019C181.55 41.6019 180.843 41.3994 180.231 40.9943C179.618 40.5852 179.139 40.0089 178.793 39.2656C178.447 38.5182 178.274 37.6351 178.274 36.6162C178.274 35.6057 178.447 34.7288 178.793 33.9856C179.139 33.2423 179.62 32.6681 180.237 32.2631C180.854 31.858 181.566 31.6555 182.375 31.6555C183 31.6555 183.494 31.7599 183.856 31.9687C184.223 32.1733 184.502 32.4072 184.694 32.6702C184.89 32.9291 185.042 33.1421 185.15 33.3091H185.276V28.5739H186.751V41.4015H185.326V39.9233H185.15C185.042 40.0987 184.888 40.32 184.688 40.5872C184.488 40.8503 184.203 41.0862 183.831 41.295C183.461 41.4996 182.967 41.6019 182.35 41.6019ZM182.55 40.2741C183.142 40.2741 183.642 40.1196 184.05 39.8106C184.459 39.4974 184.769 39.0652 184.982 38.5141C185.194 37.9587 185.301 37.3177 185.301 36.5911C185.301 35.873 185.196 35.2445 184.988 34.7058C184.779 34.163 184.471 33.7413 184.063 33.4406C183.654 33.1358 183.15 32.9834 182.55 32.9834C181.925 32.9834 181.404 33.1442 180.987 33.4657C180.575 33.783 180.264 34.2152 180.056 34.7623C179.851 35.305 179.749 35.9147 179.749 36.5911C179.749 37.2759 179.853 37.8981 180.062 38.4577C180.275 39.013 180.587 39.4557 181 39.7855C181.417 40.1112 181.933 40.2741 182.55 40.2741ZM24.472 60.9063C23.6051 60.9063 22.8446 60.6996 22.1903 60.2862C21.5402 59.8728 21.0317 59.2945 20.6649 58.5512C20.3024 57.8079 20.1211 56.9394 20.1211 55.9456C20.1211 54.9435 20.3024 54.0687 20.6649 53.3212C21.0317 52.5738 21.5402 51.9934 22.1903 51.58C22.8446 51.1666 23.6051 50.9599 24.472 50.9599C25.3388 50.9599 26.0974 51.1666 26.7475 51.58C27.4018 51.9934 27.9102 52.5738 28.2728 53.3212C28.6396 54.0687 28.8229 54.9435 28.8229 55.9456C28.8229 56.9394 28.6396 57.8079 28.2728 58.5512C27.9102 59.2945 27.4018 59.8728 26.7475 60.2862C26.0974 60.6996 25.3388 60.9063 24.472 60.9063ZM24.472 59.5784C25.1305 59.5784 25.6723 59.4093 26.0974 59.0711C26.5224 58.7328 26.8371 58.2881 27.0413 57.7369C27.2455 57.1858 27.3476 56.5887 27.3476 55.9456C27.3476 55.3025 27.2455 54.7034 27.0413 54.148C26.8371 53.5926 26.5224 53.1437 26.0974 52.8013C25.6723 52.4589 25.1305 52.2878 24.472 52.2878C23.8135 52.2878 23.2717 52.4589 22.8466 52.8013C22.4216 53.1437 22.1069 53.5926 21.9027 54.148C21.6985 54.7034 21.5964 55.3025 21.5964 55.9456C21.5964 56.5887 21.6985 57.1858 21.9027 57.7369C22.1069 58.2881 22.4216 58.7328 22.8466 59.0711C23.2717 59.4093 23.8135 59.5784 24.472 59.5784ZM37.0382 56.7724V51.0852H38.5135V60.7058H37.0382V59.0774H36.9381C36.7131 59.5659 36.363 59.9814 35.8879 60.3238C35.4128 60.662 34.8127 60.8311 34.0876 60.8311C33.4874 60.8311 32.954 60.6996 32.4872 60.4365C32.0204 60.1693 31.6537 59.7684 31.387 59.2339C31.1203 58.6953 30.9869 58.0167 30.9869 57.1983V51.0852H32.4622V57.0981C32.4622 57.7996 32.6581 58.3591 33.0499 58.7767C33.4457 59.1943 33.95 59.403 34.5626 59.403C34.9294 59.403 35.3024 59.3091 35.6817 59.1212C36.0651 58.9333 36.3859 58.6451 36.6444 58.2568C36.9069 57.8685 37.0382 57.3737 37.0382 56.7724ZM45.3035 51.0852V52.3378H40.3274V51.0852H45.3035ZM41.7777 48.7802H43.253V57.9499C43.253 58.3675 43.3134 58.6807 43.4343 58.8894C43.5593 59.094 43.7177 59.2319 43.9094 59.3028C44.1053 59.3696 44.3115 59.403 44.5283 59.403C44.6908 59.403 44.8242 59.3947 44.9283 59.378C45.0326 59.3571 45.1159 59.3404 45.1784 59.3279L45.4785 60.6558C45.3785 60.6933 45.2389 60.7309 45.0596 60.7685C44.8804 60.8103 44.6533 60.8311 44.3783 60.8311C43.9615 60.8311 43.5531 60.7413 43.153 60.5618C42.7571 60.3822 42.4278 60.1087 42.1653 59.7412C41.9069 59.3738 41.7777 58.9103 41.7777 58.3507V48.7802ZM48.5099 60.8061C48.2015 60.8061 47.9368 60.6954 47.7159 60.4741C47.4951 60.2528 47.3846 59.9876 47.3846 59.6786C47.3846 59.3696 47.4951 59.1045 47.7159 58.8832C47.9368 58.6619 48.2015 58.5512 48.5099 58.5512C48.8182 58.5512 49.0829 58.6619 49.3038 58.8832C49.5246 59.1045 49.6351 59.3696 49.6351 59.6786C49.6351 59.8833 49.583 60.0712 49.4788 60.2423C49.3788 60.4136 49.2433 60.5513 49.0724 60.6558C48.9058 60.7559 48.7183 60.8061 48.5099 60.8061ZM53.2697 60.8061C52.9613 60.8061 52.6967 60.6954 52.4758 60.4741C52.2549 60.2528 52.1445 59.9876 52.1445 59.6786C52.1445 59.3696 52.2549 59.1045 52.4758 58.8832C52.6967 58.6619 52.9613 58.5512 53.2697 58.5512C53.5781 58.5512 53.8427 58.6619 54.0637 58.8832C54.2845 59.1045 54.3949 59.3696 54.3949 59.6786C54.3949 59.8833 54.3428 60.0712 54.2387 60.2423C54.1387 60.4136 54.0032 60.5513 53.8323 60.6558C53.6656 60.7559 53.4781 60.8061 53.2697 60.8061ZM58.0295 60.8061C57.7211 60.8061 57.4565 60.6954 57.2357 60.4741C57.0148 60.2528 56.9044 59.9876 56.9044 59.6786C56.9044 59.3696 57.0148 59.1045 57.2357 58.8832C57.4565 58.6619 57.7211 58.5512 58.0295 58.5512C58.3379 58.5512 58.6026 58.6619 58.8235 58.8832C59.0444 59.1045 59.1548 59.3696 59.1548 59.6786C59.1548 59.8833 59.1027 60.0712 58.9985 60.2423C58.8985 60.4136 58.763 60.5513 58.5922 60.6558C58.4255 60.7559 58.2379 60.8061 58.0295 60.8061Z" fill="white"/>
<path d="M206.03 15.981H19.2207V73.2573H206.03V15.981Z" stroke="#26252A" stroke-width="0.805851"/>
<path d="M218.651 28.627C218.651 21.6428 213 15.981 206.029 15.981V34.2844H218.651V28.627Z" fill="#26252A" stroke="#26252A" stroke-width="0.805851"/>
<path d="M206.03 34.2842H218.651V54.9536H206.03V34.2842Z" fill="#26252A" stroke="#26252A" stroke-width="0.805851"/>
<path d="M218.651 60.6111C218.651 67.5953 213 73.2573 206.029 73.2573V54.9536H218.651V60.6111Z" fill="#26252A" stroke="#26252A" stroke-width="0.805851"/>
</g>
<defs>
<clipPath id="clip0_845_1788">
<rect width="219" height="74" fill="white"/>
</clipPath>
</defs>
</svg>
