<svg width="431" height="409" viewBox="0 0 431 409" fill="none" xmlns="http://www.w3.org/2000/svg">
<path fill-rule="evenodd" clip-rule="evenodd" d="M430 193.4C430 87.1436 333.963 1 215.5 1C97.0369 1 1 87.1436 1 193.4C1 299.657 97.0369 385.8 215.5 385.8C239.918 385.8 263.351 382.071 285.215 375.321C285.428 375.255 285.618 375.161 285.783 375.043C293.32 372.963 300.066 370.294 305.749 367.168L306.41 367.599C306.457 367.629 306.516 367.635 306.568 367.614C306.618 367.594 306.675 367.598 306.721 367.625C348.087 392.593 405.777 403.938 424.142 407.065C426.034 407.388 427.211 405.06 425.985 403.583C405.129 378.446 397.415 333.12 394.589 300.095C394.548 299.612 394.685 299.138 394.971 298.747C417.096 268.478 430 232.301 430 193.4ZM264 180C264 174.477 268.477 170 274 170H313C318.523 170 323 174.477 323 180V269H264V180ZM196 70C190.477 70 186 74.4771 186 80V269H244.721V80C244.721 74.4771 240.244 70 234.721 70H196ZM108 133C108 127.477 112.477 123 118 123H157C162.523 123 167 127.477 167 133V269H108V133ZM323 285H109V296H323V285Z" fill="url(#paint0_linear_666_4)"/>
<path d="M285.215 375.321L285.51 376.276L285.51 376.276L285.215 375.321ZM285.783 375.043L285.517 374.08L285.348 374.126L285.204 374.228L285.783 375.043ZM305.749 367.168L306.296 366.33L305.793 366.003L305.267 366.292L305.749 367.168ZM306.41 367.599L306.957 366.762L306.956 366.761L306.41 367.599ZM306.568 367.614L306.198 366.685L306.194 366.686L306.568 367.614ZM306.721 367.625L307.238 366.769L307.237 366.769L306.721 367.625ZM424.142 407.065L424.31 406.08L424.31 406.08L424.142 407.065ZM425.985 403.583L426.755 402.944L426.755 402.944L425.985 403.583ZM394.589 300.095L393.592 300.18L393.593 300.18L394.589 300.095ZM394.971 298.747L394.164 298.157L394.163 298.157L394.971 298.747ZM323 269V270H324V269H323ZM264 269H263V270H264V269ZM186 269H185V270H186V269ZM244.721 269V270H245.721V269H244.721ZM167 269V270H168V269H167ZM108 269H107V270H108V269ZM323 285H324V284H323V285ZM109 285V284H108V285H109ZM109 296H108V297H109V296ZM323 296V297H324V296H323ZM431 193.4C431 86.4918 334.41 0 215.5 0V2C333.516 2 429 87.7953 429 193.4H431ZM215.5 0C96.5896 0 0 86.4918 0 193.4H2C2 87.7953 97.4841 2 215.5 2V0ZM0 193.4C0 300.309 96.5896 386.8 215.5 386.8V384.8C97.4841 384.8 2 299.005 2 193.4H0ZM215.5 386.8C240.021 386.8 263.553 383.056 285.51 376.276L284.92 374.365C263.149 381.087 239.816 384.8 215.5 384.8V386.8ZM285.51 376.276C285.821 376.18 286.107 376.04 286.361 375.859L285.204 374.228C285.128 374.282 285.034 374.33 284.919 374.365L285.51 376.276ZM286.049 376.007C293.648 373.91 300.468 371.214 306.231 368.044L305.267 366.292C299.663 369.374 292.993 372.016 285.517 374.08L286.049 376.007ZM305.203 368.006L305.864 368.436L306.956 366.761L306.296 366.33L305.203 368.006ZM305.862 368.435C306.188 368.649 306.592 368.682 306.942 368.541L306.194 366.686C306.44 366.587 306.725 366.61 306.957 366.762L305.862 368.435ZM306.939 368.543C306.708 368.635 306.435 368.621 306.206 368.482L307.237 366.769C306.914 366.575 306.529 366.553 306.198 366.685L306.939 368.543ZM306.204 368.482C347.747 393.555 405.603 404.922 423.974 408.051L424.31 406.08C405.951 402.953 348.428 391.63 307.238 366.769L306.204 368.482ZM423.974 408.051C425.413 408.296 426.574 407.511 427.12 406.46C427.661 405.42 427.654 404.028 426.755 402.944L425.216 404.222C425.542 404.615 425.56 405.125 425.346 405.538C425.137 405.939 424.764 406.157 424.31 406.08L423.974 408.051ZM426.755 402.944C416.462 390.539 409.367 373.086 404.493 354.543C399.624 336.016 396.996 316.489 395.585 300.009L393.593 300.18C395.008 316.725 397.65 336.375 402.559 355.051C407.463 373.712 414.652 391.49 425.216 404.222L426.755 402.944ZM395.585 300.01C395.565 299.774 395.631 299.539 395.778 299.337L394.163 298.157C393.739 298.737 393.53 299.45 393.592 300.18L395.585 300.01ZM395.778 299.337C418.019 268.909 431 232.528 431 193.4H429C429 232.073 416.173 268.047 394.164 298.157L395.778 299.337ZM265 180C265 175.029 269.029 171 274 171V169C267.925 169 263 173.925 263 180H265ZM274 171H313V169H274V171ZM313 171C317.971 171 322 175.029 322 180H324C324 173.925 319.075 169 313 169V171ZM322 180V269H324V180H322ZM323 268H264V270H323V268ZM265 269V180H263V269H265ZM196 69C189.925 69 185 73.9249 185 80H187C187 75.0294 191.029 71 196 71V69ZM185 80V269H187V80H185ZM186 270H244.721V268H186V270ZM245.721 269V80H243.721V269H245.721ZM245.721 80C245.721 73.9249 240.796 69 234.721 69V71C239.692 71 243.721 75.0294 243.721 80H245.721ZM234.721 69H196V71H234.721V69ZM109 133C109 128.029 113.029 124 118 124V122C111.925 122 107 126.925 107 133H109ZM118 124H157V122H118V124ZM157 124C161.971 124 166 128.029 166 133H168C168 126.925 163.075 122 157 122V124ZM166 133V269H168V133H166ZM167 268H108V270H167V268ZM109 269V133H107V269H109ZM323 284H109V286H323V284ZM108 285V296H110V285H108ZM109 297H323V295H109V297ZM324 296V285H322V296H324Z" fill="#9F7AEA"/>
<defs>
<linearGradient id="paint0_linear_666_4" x1="-94" y1="-112" x2="430" y2="441" gradientUnits="userSpaceOnUse">
<stop offset="0.277682" stop-color="white"/>
<stop offset="0.40167" stop-color="#D6BCFA"/>
<stop offset="0.845517" stop-color="#805AD5"/>
</linearGradient>
</defs>
</svg>
