<svg width="1024" height="1024" viewBox="0 0 1024 1024" fill="none" xmlns="http://www.w3.org/2000/svg">
<path fill-rule="evenodd" clip-rule="evenodd" d="M1022.81 485.215C1022.81 217.94 794.104 1.25598 511.999 1.25598C229.892 1.25598 1.19067 217.94 1.19067 485.215C1.19067 752.494 229.892 969.176 511.999 969.176C570.147 969.176 625.952 959.795 678.017 942.816C678.527 942.651 678.975 942.414 679.367 942.118C697.319 936.882 713.381 930.171 726.916 922.31L728.49 923.395C728.602 923.468 728.745 923.481 728.869 923.428C728.988 923.382 729.124 923.389 729.23 923.455C827.738 986.261 965.123 1014.8 1008.86 1022.66C1013.36 1023.48 1016.16 1017.62 1013.24 1013.9C963.581 950.677 945.211 836.662 938.481 753.593C938.381 752.382 938.705 751.185 939.389 750.205C992.077 674.063 1022.81 583.066 1022.81 485.215ZM627.494 451.509C627.494 437.617 638.156 426.356 651.313 426.356H744.184C757.334 426.356 767.996 437.617 767.996 451.509V675.379H627.494V451.509ZM465.562 174.817C452.409 174.817 441.748 186.079 441.748 199.971V675.379H581.585V199.971C581.585 186.079 570.923 174.817 557.772 174.817H465.562ZM255.999 333.286C255.999 319.394 266.661 308.133 279.813 308.133H372.687C385.84 308.133 396.501 319.394 396.501 333.286V675.379H255.999V333.286ZM767.996 715.627H258.381V743.291H767.996V715.627Z" fill="url(#paint0_linear)"/>
<path d="M678.017 942.816L678.365 944.02H678.372L678.017 942.816ZM679.367 942.118L679.056 940.908L678.851 940.967L678.683 941.092L679.367 942.118ZM726.916 922.31L727.569 921.257L726.966 920.843L726.344 921.211L726.916 922.31ZM728.49 923.395L729.143 922.343L728.49 923.395ZM728.869 923.435L728.428 922.264H728.422L728.869 923.435ZM729.23 923.461L729.846 922.382L729.23 923.461ZM1008.86 1022.67L1009.06 1021.43L1008.86 1022.67ZM1013.24 1013.9L1014.16 1013.1L1013.24 1013.9ZM938.481 753.593L937.293 753.698L938.481 753.593ZM939.389 750.205L938.425 749.461L939.389 750.205ZM767.996 675.379V676.635H769.191V675.379H767.996ZM627.494 675.379H626.306V676.635H627.494V675.379ZM441.748 675.379H440.557V676.635H441.748V675.379ZM581.585 675.379V676.635H582.776V675.379H581.585ZM396.501 675.379V676.635H397.692V675.379H396.501ZM255.999 675.379H254.809V676.635H255.999V675.379ZM258.381 715.627V714.371H257.19V715.627H258.381ZM767.996 715.627H769.191V714.371H767.996V715.627ZM258.381 743.297H257.19V744.554H258.381V743.297ZM767.996 743.297V744.554H769.191V743.297H767.996ZM511.999 2.51538C793.575 2.51538 1021.62 218.761 1021.62 485.217H1024C1024 217.122 794.639 0 511.999 0V2.51538ZM2.38139 485.217C2.38139 218.761 230.424 2.51538 511.999 2.51538V0C229.359 0 0 217.122 0 485.217H2.38139ZM511.999 967.92C230.424 967.92 2.38139 751.672 2.38139 485.217H0C0 753.317 229.359 970.433 511.999 970.433V967.92ZM677.662 941.618C625.709 958.558 570.026 967.92 511.999 967.92V970.433C570.271 970.433 626.188 961.032 678.365 944.02L677.662 941.618ZM678.683 941.092C678.396 941.309 678.054 941.487 677.662 941.618L678.372 944.02C678.994 943.816 679.56 943.52 680.057 943.145L678.683 941.092ZM726.344 921.211C712.901 929.014 696.927 935.691 679.056 940.908L679.684 943.329C697.711 938.079 713.859 931.329 727.488 923.408L726.344 921.211ZM729.143 922.343L727.569 921.257L726.269 923.362L727.843 924.448L729.143 922.343ZM728.422 922.264C728.652 922.165 728.919 922.191 729.143 922.343L727.837 924.448C728.285 924.751 728.832 924.803 729.311 924.599L728.422 922.264ZM729.846 922.382C729.404 922.106 728.882 922.073 728.428 922.264L729.305 924.599C729.093 924.691 728.838 924.678 728.614 924.54L729.846 922.382ZM1009.06 1021.43C965.328 1013.56 828.148 985.051 729.846 922.382L728.614 924.54C827.333 987.472 964.918 1016.04 1008.65 1023.9L1009.06 1021.43ZM1012.33 1014.71C1013.45 1016.14 1013.48 1017.97 1012.78 1019.4C1012.08 1020.82 1010.73 1021.73 1009.06 1021.43L1008.65 1023.9C1011.5 1024.42 1013.79 1022.8 1014.89 1020.56C1015.99 1018.34 1015.96 1015.4 1014.16 1013.1L1012.33 1014.71ZM937.293 753.698C940.658 795.275 946.947 844.629 958.61 891.508C970.274 938.375 987.336 982.893 1012.33 1014.71L1014.16 1013.1C989.489 981.696 972.538 937.592 960.912 890.87C949.292 844.175 943.028 794.979 939.663 753.488L937.293 753.698ZM938.425 749.461C937.579 750.685 937.168 752.178 937.293 753.698L939.663 753.488C939.594 752.586 939.837 751.692 940.353 750.948L938.425 749.461ZM1021.62 485.217C1021.62 582.781 990.975 673.524 938.425 749.461L940.347 750.948C993.177 674.609 1024 583.352 1024 485.217H1021.62ZM651.313 425.1C637.503 425.1 626.306 436.924 626.306 451.511H628.689C628.689 438.313 638.816 427.615 651.313 427.615V425.1ZM744.184 425.1H651.313V427.615H744.184V425.1ZM769.191 451.511C769.191 436.924 757.994 425.1 744.184 425.1V427.615C756.681 427.615 766.808 438.313 766.808 451.511H769.191ZM769.191 675.379V451.511H766.808V675.379H769.191ZM627.494 676.635H767.996V674.122H627.494V676.635ZM626.306 451.511V675.379H628.689V451.511H626.306ZM442.938 199.973C442.938 186.776 453.067 176.077 465.562 176.077V173.562C451.752 173.562 440.557 185.386 440.557 199.973H442.938ZM442.938 675.379V199.973H440.557V675.379H442.938ZM581.585 674.122H441.748V676.635H581.585V674.122ZM580.395 199.973V675.379H582.776V199.973H580.395ZM557.771 176.077C570.267 176.077 580.395 186.776 580.395 199.973H582.776C582.776 185.386 571.581 173.562 557.771 173.562V176.077ZM465.562 176.077H557.771V173.562H465.562V176.077ZM279.813 306.877C266.004 306.877 254.809 318.701 254.809 333.288H257.19C257.19 320.09 267.318 309.392 279.813 309.392V306.877ZM372.687 306.877H279.813V309.392H372.687V306.877ZM397.692 333.288C397.692 318.701 386.497 306.877 372.687 306.877V309.392C385.182 309.392 395.311 320.09 395.311 333.288H397.692ZM397.692 675.379V333.288H395.311V675.379H397.692ZM255.999 676.635H396.501V674.122H255.999V676.635ZM254.809 333.288V675.379H257.19V333.288H254.809ZM258.381 716.884H767.996V714.371H258.381V716.884ZM259.571 743.297V715.627H257.19V743.297H259.571ZM767.996 742.041H258.381V744.554H767.996V742.041ZM766.808 715.627V743.297H769.191V715.627H766.808Z" fill="#9A8D8D"/>
<path d="M678.017 942.816L678.365 944.02H678.372L678.017 942.816ZM679.367 942.118L679.056 940.908L678.851 940.967L678.683 941.092L679.367 942.118ZM726.916 922.31L727.569 921.257L726.966 920.843L726.344 921.211L726.916 922.31ZM728.49 923.395L729.143 922.343L728.49 923.395ZM728.869 923.435L728.428 922.264H728.422L728.869 923.435ZM729.23 923.461L729.846 922.382L729.23 923.461ZM1008.86 1022.67L1009.06 1021.43L1008.86 1022.67ZM1013.24 1013.9L1014.16 1013.1L1013.24 1013.9ZM938.481 753.593L937.293 753.698L938.481 753.593ZM939.389 750.205L938.425 749.461L939.389 750.205ZM767.996 675.379V676.635H769.191V675.379H767.996ZM627.494 675.379H626.306V676.635H627.494V675.379ZM441.748 675.379H440.557V676.635H441.748V675.379ZM581.585 675.379V676.635H582.776V675.379H581.585ZM396.501 675.379V676.635H397.692V675.379H396.501ZM255.999 675.379H254.809V676.635H255.999V675.379ZM258.381 715.627V714.371H257.19V715.627H258.381ZM767.996 715.627H769.191V714.371H767.996V715.627ZM258.381 743.297H257.19V744.554H258.381V743.297ZM767.996 743.297V744.554H769.191V743.297H767.996ZM511.999 2.51538C793.575 2.51538 1021.62 218.761 1021.62 485.217H1024C1024 217.122 794.639 0 511.999 0V2.51538ZM2.38139 485.217C2.38139 218.761 230.424 2.51538 511.999 2.51538V0C229.359 0 0 217.122 0 485.217H2.38139ZM511.999 967.92C230.424 967.92 2.38139 751.672 2.38139 485.217H0C0 753.317 229.359 970.433 511.999 970.433V967.92ZM677.662 941.618C625.709 958.558 570.026 967.92 511.999 967.92V970.433C570.271 970.433 626.188 961.032 678.365 944.02L677.662 941.618ZM678.683 941.092C678.396 941.309 678.054 941.487 677.662 941.618L678.372 944.02C678.994 943.816 679.56 943.52 680.057 943.145L678.683 941.092ZM726.344 921.211C712.901 929.014 696.927 935.691 679.056 940.908L679.684 943.329C697.711 938.079 713.859 931.329 727.488 923.408L726.344 921.211ZM729.143 922.343L727.569 921.257L726.269 923.362L727.843 924.448L729.143 922.343ZM728.422 922.264C728.652 922.165 728.919 922.191 729.143 922.343L727.837 924.448C728.285 924.751 728.832 924.803 729.311 924.599L728.422 922.264ZM729.846 922.382C729.404 922.106 728.882 922.073 728.428 922.264L729.305 924.599C729.093 924.691 728.838 924.678 728.614 924.54L729.846 922.382ZM1009.06 1021.43C965.328 1013.56 828.148 985.051 729.846 922.382L728.614 924.54C827.333 987.472 964.918 1016.04 1008.65 1023.9L1009.06 1021.43ZM1012.33 1014.71C1013.45 1016.14 1013.48 1017.97 1012.78 1019.4C1012.08 1020.82 1010.73 1021.73 1009.06 1021.43L1008.65 1023.9C1011.5 1024.42 1013.79 1022.8 1014.89 1020.56C1015.99 1018.34 1015.96 1015.4 1014.16 1013.1L1012.33 1014.71ZM937.293 753.698C940.658 795.275 946.947 844.629 958.61 891.508C970.274 938.375 987.336 982.893 1012.33 1014.71L1014.16 1013.1C989.489 981.696 972.538 937.592 960.912 890.87C949.292 844.175 943.028 794.979 939.663 753.488L937.293 753.698ZM938.425 749.461C937.579 750.685 937.168 752.178 937.293 753.698L939.663 753.488C939.594 752.586 939.837 751.692 940.353 750.948L938.425 749.461ZM1021.62 485.217C1021.62 582.781 990.975 673.524 938.425 749.461L940.347 750.948C993.177 674.609 1024 583.352 1024 485.217H1021.62ZM651.313 425.1C637.503 425.1 626.306 436.924 626.306 451.511H628.689C628.689 438.313 638.816 427.615 651.313 427.615V425.1ZM744.184 425.1H651.313V427.615H744.184V425.1ZM769.191 451.511C769.191 436.924 757.994 425.1 744.184 425.1V427.615C756.681 427.615 766.808 438.313 766.808 451.511H769.191ZM769.191 675.379V451.511H766.808V675.379H769.191ZM627.494 676.635H767.996V674.122H627.494V676.635ZM626.306 451.511V675.379H628.689V451.511H626.306ZM442.938 199.973C442.938 186.776 453.067 176.077 465.562 176.077V173.562C451.752 173.562 440.557 185.386 440.557 199.973H442.938ZM442.938 675.379V199.973H440.557V675.379H442.938ZM581.585 674.122H441.748V676.635H581.585V674.122ZM580.395 199.973V675.379H582.776V199.973H580.395ZM557.771 176.077C570.267 176.077 580.395 186.776 580.395 199.973H582.776C582.776 185.386 571.581 173.562 557.771 173.562V176.077ZM465.562 176.077H557.771V173.562H465.562V176.077ZM279.813 306.877C266.004 306.877 254.809 318.701 254.809 333.288H257.19C257.19 320.09 267.318 309.392 279.813 309.392V306.877ZM372.687 306.877H279.813V309.392H372.687V306.877ZM397.692 333.288C397.692 318.701 386.497 306.877 372.687 306.877V309.392C385.182 309.392 395.311 320.09 395.311 333.288H397.692ZM397.692 675.379V333.288H395.311V675.379H397.692ZM255.999 676.635H396.501V674.122H255.999V676.635ZM254.809 333.288V675.379H257.19V333.288H254.809ZM258.381 716.884H767.996V714.371H258.381V716.884ZM259.571 743.297V715.627H257.19V743.297H259.571ZM767.996 742.041H258.381V744.554H767.996V742.041ZM766.808 715.627V743.297H769.191V715.627H766.808Z" fill="#9A8D8D"/>
<defs>
<linearGradient id="paint0_linear" x1="511.999" y1="1.25598" x2="511.999" y2="1022.74" gradientUnits="userSpaceOnUse">
<stop stop-color="#7B8CDE"/>
<stop offset="1" stop-color="#A480CF"/>
</linearGradient>
</defs>
</svg>
