<svg width="2827" height="410" viewBox="0 0 2827 410" fill="none" xmlns="http://www.w3.org/2000/svg">
<path fill-rule="evenodd" clip-rule="evenodd" d="M431 194.4C431 88.1436 334.963 2 216.5 2C98.0369 2 2 88.1436 2 194.4C2 300.657 98.0369 386.8 216.5 386.8C240.918 386.8 264.351 383.071 286.215 376.321C286.428 376.255 286.618 376.161 286.783 376.043C294.32 373.963 301.066 371.294 306.749 368.168L307.41 368.599C307.457 368.629 307.516 368.635 307.568 368.614C307.618 368.594 307.675 368.598 307.721 368.625C349.087 393.593 406.777 404.938 425.142 408.065C427.034 408.388 428.211 406.06 426.985 404.583C406.129 379.446 398.415 334.12 395.589 301.095C395.548 300.612 395.685 300.138 395.971 299.747C418.096 269.478 431 233.301 431 194.4ZM265 181C265 175.477 269.477 171 275 171H314C319.523 171 324 175.477 324 181V270H265V181ZM197 71C191.477 71 187 75.4771 187 81V270H245.721V81C245.721 75.4771 241.244 71 235.721 71H197ZM109 134C109 128.477 113.477 124 119 124H158C163.523 124 168 128.477 168 134V270H109V134ZM324 286H110V297H324V286Z" fill="url(#paint0_linear_669_121)"/>
<path d="M286.215 376.321L286.657 377.754L286.658 377.754L286.215 376.321ZM286.783 376.043L286.384 374.598L286.13 374.668L285.915 374.82L286.783 376.043ZM306.749 368.168L307.569 366.912L306.815 366.42L306.027 366.854L306.749 368.168ZM307.41 368.599L308.231 367.344L308.229 367.342L307.41 368.599ZM307.568 368.614L307.012 367.221L307.008 367.222L307.568 368.614ZM307.721 368.625L308.496 367.341L308.494 367.34L307.721 368.625ZM425.142 408.065L425.394 406.587L425.394 406.587L425.142 408.065ZM426.985 404.583L428.14 403.625L428.14 403.625L426.985 404.583ZM395.589 301.095L394.094 301.222L394.094 301.223L395.589 301.095ZM395.971 299.747L394.76 298.862L394.76 298.862L395.971 299.747ZM324 270V271.5H325.5V270H324ZM265 270H263.5V271.5H265V270ZM187 270H185.5V271.5H187V270ZM245.721 270V271.5H247.221V270H245.721ZM168 270V271.5H169.5V270H168ZM109 270H107.5V271.5H109V270ZM110 286V284.5H108.5V286H110ZM324 286H325.5V284.5H324V286ZM110 297H108.5V298.5H110V297ZM324 297V298.5H325.5V297H324ZM216.5 3.5C334.292 3.5 429.5 89.1212 429.5 194.4H432.5C432.5 87.1659 335.634 0.5 216.5 0.5V3.5ZM3.5 194.4C3.5 89.1212 98.7077 3.5 216.5 3.5V0.5C97.366 0.5 0.5 87.1659 0.5 194.4H3.5ZM216.5 385.3C98.7077 385.3 3.5 299.679 3.5 194.4H0.5C0.5 301.634 97.366 388.3 216.5 388.3V385.3ZM285.772 374.888C264.049 381.595 240.765 385.3 216.5 385.3V388.3C241.072 388.3 264.653 384.548 286.657 377.754L285.772 374.888ZM285.915 374.82C285.883 374.842 285.838 374.867 285.771 374.888L286.658 377.754C287.018 377.642 287.352 377.479 287.65 377.267L285.915 374.82ZM306.027 366.854C300.462 369.914 293.829 372.542 286.384 374.598L287.182 377.489C294.811 375.383 301.669 372.674 307.472 369.482L306.027 366.854ZM308.229 367.342L307.569 366.912L305.93 369.424L306.59 369.855L308.229 367.342ZM307.008 367.222C307.402 367.064 307.86 367.1 308.231 367.344L306.588 369.854C307.054 370.159 307.63 370.206 308.129 370.005L307.008 367.222ZM308.494 367.34C308.034 367.063 307.484 367.032 307.012 367.221L308.124 370.007C307.752 370.155 307.316 370.132 306.948 369.911L308.494 367.34ZM425.394 406.587C407.038 403.46 349.599 392.149 308.496 367.341L306.946 369.91C348.576 395.036 406.516 406.415 424.89 409.544L425.394 406.587ZM425.831 405.541C426.014 405.762 426.035 406.052 425.902 406.307C425.838 406.431 425.754 406.509 425.679 406.55C425.617 406.584 425.531 406.61 425.394 406.587L424.89 409.544C426.575 409.831 427.933 408.904 428.564 407.691C429.186 406.494 429.182 404.882 428.14 403.625L425.831 405.541ZM394.094 301.223C395.512 317.784 398.157 337.464 403.075 356.178C407.987 374.868 415.2 392.728 425.831 405.541L428.14 403.625C417.915 391.302 410.842 373.93 405.977 355.416C401.117 336.926 398.492 317.431 397.083 300.967L394.094 301.223ZM394.76 298.862C394.267 299.537 394.021 300.368 394.094 301.222L397.083 300.967C397.074 300.855 397.104 300.739 397.182 300.632L394.76 298.862ZM429.5 194.4C429.5 232.96 416.711 268.831 394.76 298.862L397.182 300.632C419.481 270.125 432.5 233.642 432.5 194.4H429.5ZM275 169.5C268.649 169.5 263.5 174.649 263.5 181H266.5C266.5 176.306 270.306 172.5 275 172.5V169.5ZM314 169.5H275V172.5H314V169.5ZM325.5 181C325.5 174.649 320.351 169.5 314 169.5V172.5C318.694 172.5 322.5 176.306 322.5 181H325.5ZM325.5 270V181H322.5V270H325.5ZM265 271.5H324V268.5H265V271.5ZM263.5 181V270H266.5V181H263.5ZM188.5 81C188.5 76.3056 192.306 72.5 197 72.5V69.5C190.649 69.5 185.5 74.6487 185.5 81H188.5ZM188.5 270V81H185.5V270H188.5ZM245.721 268.5H187V271.5H245.721V268.5ZM244.221 81V270H247.221V81H244.221ZM235.721 72.5C240.416 72.5 244.221 76.3056 244.221 81H247.221C247.221 74.6487 242.073 69.5 235.721 69.5V72.5ZM197 72.5H235.721V69.5H197V72.5ZM119 122.5C112.649 122.5 107.5 127.649 107.5 134H110.5C110.5 129.306 114.306 125.5 119 125.5V122.5ZM158 122.5H119V125.5H158V122.5ZM169.5 134C169.5 127.649 164.351 122.5 158 122.5V125.5C162.694 125.5 166.5 129.306 166.5 134H169.5ZM169.5 270V134H166.5V270H169.5ZM109 271.5H168V268.5H109V271.5ZM107.5 134V270H110.5V134H107.5ZM110 287.5H324V284.5H110V287.5ZM111.5 297V286H108.5V297H111.5ZM324 295.5H110V298.5H324V295.5ZM322.5 286V297H325.5V286H322.5Z" fill="#9F7AEA"/>
<path d="M795.896 311.549C797.741 311.549 799.356 312.241 800.74 313.624C802.124 315.008 802.816 316.622 802.816 318.467C802.816 320.543 802.124 322.273 800.74 323.656C799.356 324.809 797.741 325.386 795.896 325.386H668.92C666.844 325.386 665.114 324.694 663.73 323.31C662.577 321.927 662 320.312 662 318.467V90.1582C662 88.3132 662.692 86.6989 664.076 85.3152C665.46 83.9316 667.19 83.2397 669.266 83.2397C671.342 83.2397 673.072 83.9316 674.455 85.3152C675.839 86.6989 676.531 88.3132 676.531 90.1582V317.776L670.304 311.549H795.896ZM849.682 83.2397H980.119C981.964 83.2397 983.578 83.9316 984.962 85.3152C986.346 86.6989 987.038 88.3132 987.038 90.1582C987.038 92.2337 986.346 93.9633 984.962 95.347C983.578 96.5001 981.964 97.0766 980.119 97.0766H853.834L857.294 91.1959V198.432L853.142 193.589H964.549C966.395 193.589 968.009 194.281 969.393 195.665C970.777 197.048 971.469 198.663 971.469 200.508C971.469 202.583 970.777 204.313 969.393 205.696C968.009 206.85 966.395 207.426 964.549 207.426H853.834L857.294 203.621V313.279L855.91 311.549H980.119C981.964 311.549 983.578 312.241 984.962 313.624C986.346 315.008 987.038 316.622 987.038 318.467C987.038 320.543 986.346 322.273 984.962 323.656C983.578 324.809 981.964 325.386 980.119 325.386H849.682C847.837 325.386 846.223 324.694 844.839 323.31C843.455 321.927 842.763 320.312 842.763 318.467V90.1582C842.763 88.3132 843.455 86.6989 844.839 85.3152C846.223 83.9316 847.837 83.2397 849.682 83.2397ZM1045.99 325.386C1043.91 325.386 1042.18 324.694 1040.8 323.31C1039.65 321.927 1039.07 320.312 1039.07 318.467V90.1582C1039.07 88.3132 1039.76 86.6989 1041.14 85.3152C1042.53 83.9316 1044.14 83.2397 1045.99 83.2397H1176.42C1178.27 83.2397 1179.88 83.9316 1181.27 85.3152C1182.65 86.6989 1183.34 88.3132 1183.34 90.1582C1183.34 92.2337 1182.65 93.9633 1181.27 95.347C1179.88 96.5001 1178.27 97.0766 1176.42 97.0766H1051.87L1052.91 95.6929V195.319L1051.52 192.551H1160.86C1162.7 192.551 1164.32 193.243 1165.7 194.627C1167.08 196.011 1167.77 197.625 1167.77 199.47C1167.77 201.545 1167.08 203.275 1165.7 204.659C1164.32 205.812 1162.7 206.388 1160.86 206.388H1050.83L1052.91 203.621V318.467C1052.91 320.312 1052.22 321.927 1050.83 323.31C1049.68 324.694 1048.06 325.386 1045.99 325.386ZM1308.95 325.386C1306.87 325.386 1305.14 324.694 1303.76 323.31C1302.61 321.927 1302.03 320.312 1302.03 318.467V91.5419H1315.87V318.467C1315.87 320.312 1315.18 321.927 1313.79 323.31C1312.41 324.694 1310.79 325.386 1308.95 325.386ZM1224.87 96.3848C1223.03 96.3848 1221.41 95.8082 1220.03 94.6552C1218.65 93.2715 1217.95 91.6572 1217.95 89.8122C1217.95 87.9673 1218.65 86.4683 1220.03 85.3152C1221.41 83.9316 1223.03 83.2397 1224.87 83.2397H1393.02C1394.87 83.2397 1396.48 83.9316 1397.87 85.3152C1399.25 86.4683 1399.94 87.9673 1399.94 89.8122C1399.94 91.8878 1399.25 93.5021 1397.87 94.6552C1396.48 95.8082 1394.87 96.3848 1393.02 96.3848H1224.87ZM1660.46 249.715C1660.46 261.246 1658.66 271.768 1655.06 281.281C1651.6 290.794 1646.62 299.009 1640.14 305.928C1633.65 312.846 1626.01 318.179 1617.21 321.927C1608.42 325.674 1598.76 327.548 1588.24 327.548C1577.72 327.548 1568.06 325.674 1559.26 321.927C1550.47 318.179 1542.83 312.846 1536.34 305.928C1529.85 299.009 1524.81 290.794 1521.2 281.281C1517.74 271.768 1516.01 261.246 1516.01 249.715C1516.01 238.184 1517.74 227.663 1521.2 218.15C1524.81 208.637 1529.85 200.421 1536.34 193.503C1542.83 186.584 1550.47 181.251 1559.26 177.504C1568.06 173.756 1577.72 171.882 1588.24 171.882C1598.76 171.882 1608.42 173.756 1617.21 177.504C1626.01 181.251 1633.65 186.584 1640.14 193.503C1646.62 200.421 1651.6 208.637 1655.06 218.15C1658.66 227.663 1660.46 238.184 1660.46 249.715ZM1651.38 249.715C1651.38 235.878 1648.64 223.771 1643.16 213.393C1637.83 203.016 1630.41 194.944 1620.89 189.179C1611.52 183.413 1600.64 180.531 1588.24 180.531C1575.99 180.531 1565.1 183.413 1555.59 189.179C1546.07 194.944 1538.58 203.016 1533.1 213.393C1527.76 223.771 1525.1 235.878 1525.1 249.715C1525.1 263.552 1527.76 275.659 1533.1 286.037C1538.58 296.415 1546.07 304.486 1555.59 310.252C1565.1 316.017 1575.99 318.9 1588.24 318.9C1600.64 318.9 1611.52 316.017 1620.89 310.252C1630.41 304.486 1637.83 296.415 1643.16 286.037C1648.64 275.659 1651.38 263.552 1651.38 249.715ZM1802.22 174.044C1803.52 174.044 1804.53 174.477 1805.25 175.342C1805.97 176.062 1806.33 176.999 1806.33 178.152V320.629C1806.33 322.215 1805.83 323.44 1804.82 324.305C1803.95 325.025 1802.95 325.386 1801.79 325.386C1801.22 325.386 1800.57 325.242 1799.85 324.953C1799.27 324.665 1798.76 324.233 1798.33 323.656L1698 186.584L1701.02 185.071V321.71C1701.02 322.719 1700.59 323.584 1699.73 324.305C1699.01 325.025 1698.07 325.386 1696.92 325.386C1695.62 325.386 1694.61 325.025 1693.89 324.305C1693.17 323.584 1692.81 322.719 1692.81 321.71V178.369C1692.81 176.783 1693.24 175.702 1694.1 175.126C1694.97 174.405 1695.83 174.044 1696.7 174.044C1697.28 174.044 1697.85 174.189 1698.43 174.477C1699.01 174.621 1699.51 174.981 1699.94 175.558L1799.85 311.765L1798.12 316.089V178.152C1798.12 176.999 1798.55 176.062 1799.41 175.342C1800.28 174.477 1801.22 174.044 1802.22 174.044ZM1986.31 325.386C1984 325.386 1982.15 324.694 1980.77 323.31C1979.62 321.927 1979.04 320.312 1979.04 318.467V90.1582C1979.04 88.3132 1979.73 86.6989 1981.12 85.3152C1982.5 83.9316 1984.11 83.2397 1985.96 83.2397H2077.3C2090.91 83.2397 2102.79 86.0071 2112.94 91.5419C2123.32 96.846 2131.39 104.226 2137.16 113.681C2142.92 123.136 2145.8 133.86 2145.8 145.852C2145.8 156.46 2143.84 166.031 2139.92 174.563C2136.23 183.096 2130.93 190.245 2124.01 196.011C2117.32 201.545 2109.59 205.581 2100.83 208.118L2084.91 205.351C2094.14 205.351 2102.9 207.772 2111.21 212.615C2119.51 217.227 2126.31 224.146 2131.62 233.37C2136.92 242.364 2139.58 253.434 2139.58 266.579C2139.58 277.879 2140.04 286.527 2140.96 292.523C2142.11 298.288 2143.5 302.555 2145.11 305.322C2146.96 308.09 2149.03 310.281 2151.34 311.895C2152.72 312.817 2153.76 313.97 2154.45 315.354C2155.15 316.738 2155.26 318.352 2154.8 320.197C2154.34 321.581 2153.53 322.734 2152.38 323.656C2151.46 324.348 2150.42 324.809 2149.26 325.04C2148.11 325.27 2146.84 325.04 2145.46 324.348C2142.23 322.503 2139 319.736 2135.77 316.046C2132.77 312.356 2130.24 306.706 2128.16 299.096C2126.08 291.485 2125.05 280.646 2125.05 266.579C2125.05 255.74 2123.32 247.092 2119.86 240.635C2116.63 234.177 2112.36 229.219 2107.05 225.76C2101.98 222.301 2096.44 219.995 2090.45 218.842C2084.68 217.688 2079.38 217.112 2074.53 217.112H1990.46L1993.57 212.961V318.467C1993.57 320.312 1992.88 321.927 1991.5 323.31C1990.11 324.694 1988.38 325.386 1986.31 325.386ZM1990.11 203.275H2079.03C2088.26 202.353 2096.79 199.585 2104.63 194.973C2112.47 190.361 2118.82 183.903 2123.66 175.601C2128.74 167.299 2131.27 157.498 2131.27 146.198C2131.27 132.13 2126.2 120.484 2116.05 111.259C2106.13 101.804 2092.64 97.0766 2075.57 97.0766H1991.84L1993.57 94.6552V207.08L1990.11 203.275ZM2215.71 83.2397H2346.15C2348 83.2397 2349.61 83.9316 2350.99 85.3152C2352.38 86.6989 2353.07 88.3132 2353.07 90.1582C2353.07 92.2337 2352.38 93.9633 2350.99 95.347C2349.61 96.5001 2348 97.0766 2346.15 97.0766H2219.87L2223.33 91.1959V198.432L2219.17 193.589H2330.58C2332.43 193.589 2334.04 194.281 2335.42 195.665C2336.81 197.048 2337.5 198.663 2337.5 200.508C2337.5 202.583 2336.81 204.313 2335.42 205.696C2334.04 206.85 2332.43 207.426 2330.58 207.426H2219.87L2223.33 203.621V313.279L2221.94 311.549H2346.15C2348 311.549 2349.61 312.241 2350.99 313.624C2352.38 315.008 2353.07 316.622 2353.07 318.467C2353.07 320.543 2352.38 322.273 2350.99 323.656C2349.61 324.809 2348 325.386 2346.15 325.386H2215.71C2213.87 325.386 2212.25 324.694 2210.87 323.31C2209.49 321.927 2208.79 320.312 2208.79 318.467V90.1582C2208.79 88.3132 2209.49 86.6989 2210.87 85.3152C2212.25 83.9316 2213.87 83.2397 2215.71 83.2397ZM2483.64 100.882L2396.1 320.889C2395.64 322.273 2394.84 323.426 2393.68 324.348C2392.53 325.04 2391.26 325.386 2389.88 325.386C2387.57 325.386 2385.84 324.809 2384.69 323.656C2383.53 322.503 2382.84 321.119 2382.61 319.505C2382.38 318.583 2382.5 317.43 2382.96 316.046L2476.03 87.0449C2476.72 85.1999 2477.53 84.0469 2478.45 83.5856C2479.6 82.8938 2480.99 82.5479 2482.6 82.5479C2484.45 82.5479 2485.95 83.0091 2487.1 83.9316C2488.25 84.6234 2489.06 85.6612 2489.52 87.0449L2582.59 316.046C2582.82 316.738 2582.94 317.66 2582.94 318.813C2582.94 320.889 2582.24 322.503 2580.86 323.656C2579.48 324.809 2577.75 325.386 2575.67 325.386C2574.06 325.386 2572.56 325.04 2571.17 324.348C2570.02 323.426 2569.21 322.273 2568.75 320.889L2478.45 98.1144L2483.64 100.882ZM2419.63 250.321L2424.48 236.484H2536.57L2540.03 250.321H2419.63ZM2726.66 83.2397C2743.96 83.2397 2758.96 86.5836 2771.64 93.2715C2784.33 99.7287 2794.71 108.723 2802.78 120.253C2811.08 131.554 2817.2 144.468 2821.12 158.997C2825.04 173.526 2827 188.631 2827 204.313C2827 226.452 2823.42 246.746 2816.27 265.195C2809.35 283.414 2798.51 298.058 2783.75 309.127C2768.99 319.966 2749.96 325.386 2726.66 325.386H2636.71C2634.86 325.386 2633.25 324.694 2631.86 323.31C2630.48 321.927 2629.79 320.312 2629.79 318.467V90.1582C2629.79 88.3132 2630.48 86.6989 2631.86 85.3152C2633.25 83.9316 2634.86 83.2397 2636.71 83.2397H2726.66ZM2723.2 311.549C2744.42 311.549 2761.49 306.821 2774.41 297.366C2787.56 287.68 2797.13 274.766 2803.13 258.623C2809.35 242.249 2812.47 224.146 2812.47 204.313C2812.47 190.245 2810.74 176.754 2807.28 163.84C2804.05 150.925 2798.86 139.51 2791.71 129.593C2784.56 119.446 2775.33 111.49 2764.03 105.725C2752.73 99.9593 2739.12 97.0766 2723.2 97.0766H2642.24L2644.32 94.3092V314.662L2642.24 311.549H2723.2Z" fill="#9F7AEA"/>
<defs>
<linearGradient id="paint0_linear_669_121" x1="-93" y1="-111" x2="431" y2="442" gradientUnits="userSpaceOnUse">
<stop offset="0.277682" stop-color="#F4F4F4"/>
<stop offset="0.40167" stop-color="#D6BCFA"/>
<stop offset="0.845517" stop-color="#805AD5"/>
</linearGradient>
</defs>
</svg>
