<?xml version="1.0" encoding="UTF-8"?>
<svg xmlns="http://www.w3.org/2000/svg" xmlns:xlink="http://www.w3.org/1999/xlink" width="150px" height="22px" viewBox="0 0 152 22" version="1.1">
<defs>
<linearGradient id="linear0" gradientUnits="userSpaceOnUse" x1="-93" y1="-111" x2="431" y2="442" gradientTransform="matrix(0.053468,0,0,0.0536585,0.423262,0)">
<stop offset="0.277682" style="stop-color:rgb(95.686275%,95.686275%,95.686275%);stop-opacity:1;"/>
<stop offset="0.40167" style="stop-color:rgb(83.921569%,73.72549%,98.039216%);stop-opacity:1;"/>
<stop offset="0.845517" style="stop-color:rgb(50.196078%,35.294118%,83.529412%);stop-opacity:1;"/>
</linearGradient>
</defs>
<g id="surface1">
<path style=" stroke:none;fill-rule:evenodd;fill:url(#linear0);" d="M 23.46875 10.429688 C 23.46875 4.730469 18.332031 0.105469 12 0.105469 C 5.664062 0.105469 0.53125 4.730469 0.53125 10.429688 C 0.53125 16.132812 5.664062 20.753906 12 20.753906 C 13.304688 20.753906 14.558594 20.554688 15.726562 20.191406 C 15.738281 20.191406 15.75 20.183594 15.757812 20.175781 C 16.160156 20.066406 16.519531 19.921875 16.824219 19.753906 L 16.859375 19.777344 C 16.863281 19.78125 16.867188 19.78125 16.867188 19.777344 C 16.871094 19.777344 16.875 19.777344 16.875 19.78125 C 19.085938 21.121094 22.171875 21.730469 23.15625 21.894531 C 23.253906 21.914062 23.320312 21.789062 23.253906 21.710938 C 22.136719 20.359375 21.726562 17.929688 21.574219 16.15625 C 21.574219 16.128906 21.578125 16.105469 21.59375 16.082031 C 22.777344 14.460938 23.46875 12.519531 23.46875 10.429688 Z M 14.589844 9.710938 C 14.589844 9.417969 14.832031 9.175781 15.125 9.175781 L 17.210938 9.175781 C 17.507812 9.175781 17.746094 9.417969 17.746094 9.710938 L 17.746094 14.488281 L 14.589844 14.488281 Z M 10.957031 3.808594 C 10.660156 3.808594 10.421875 4.050781 10.421875 4.347656 L 10.421875 14.488281 L 13.5625 14.488281 L 13.5625 4.347656 C 13.5625 4.050781 13.320312 3.808594 13.027344 3.808594 Z M 6.25 7.191406 C 6.25 6.894531 6.492188 6.652344 6.785156 6.652344 L 8.871094 6.652344 C 9.164062 6.652344 9.40625 6.894531 9.40625 7.191406 L 9.40625 14.488281 L 6.25 14.488281 Z M 17.746094 15.347656 L 6.304688 15.347656 L 6.304688 15.9375 L 17.746094 15.9375 Z M 17.746094 15.347656 "/>
<path style=" stroke:none;fill-rule:nonzero;fill:rgb(62.352941%,47.843137%,91.764706%);fill-opacity:1;" d="M 15.726562 20.191406 L 15.75 20.269531 Z M 15.757812 20.175781 L 15.738281 20.101562 L 15.71875 20.105469 L 15.710938 20.113281 Z M 16.824219 19.753906 L 16.867188 19.6875 L 16.828125 19.660156 L 16.785156 19.683594 Z M 16.859375 19.777344 L 16.90625 19.710938 Z M 16.867188 19.777344 L 16.839844 19.707031 Z M 16.875 19.78125 L 16.917969 19.710938 Z M 23.15625 21.894531 L 23.167969 21.816406 Z M 23.253906 21.710938 L 23.316406 21.65625 Z M 21.574219 16.15625 L 21.492188 16.164062 Z M 21.59375 16.082031 L 21.53125 16.035156 Z M 17.746094 14.488281 L 17.746094 14.566406 L 17.828125 14.566406 L 17.828125 14.488281 Z M 14.589844 14.488281 L 14.511719 14.488281 L 14.511719 14.566406 L 14.589844 14.566406 Z M 10.421875 14.488281 L 10.339844 14.488281 L 10.339844 14.566406 L 10.421875 14.566406 Z M 13.5625 14.488281 L 13.5625 14.566406 L 13.640625 14.566406 L 13.640625 14.488281 Z M 9.40625 14.488281 L 9.40625 14.566406 L 9.484375 14.566406 L 9.484375 14.488281 Z M 6.25 14.488281 L 6.171875 14.488281 L 6.171875 14.566406 L 6.25 14.566406 Z M 6.304688 15.347656 L 6.304688 15.265625 L 6.222656 15.265625 L 6.222656 15.347656 Z M 17.746094 15.347656 L 17.828125 15.347656 L 17.828125 15.265625 L 17.746094 15.265625 Z M 6.304688 15.9375 L 6.222656 15.9375 L 6.222656 16.015625 L 6.304688 16.015625 Z M 17.746094 15.9375 L 17.746094 16.015625 L 17.828125 16.015625 L 17.828125 15.9375 Z M 12 0.1875 C 18.296875 0.1875 23.386719 4.78125 23.386719 10.429688 L 23.550781 10.429688 C 23.550781 4.675781 18.371094 0.0273438 12 0.0273438 Z M 0.609375 10.429688 C 0.609375 4.78125 5.699219 0.1875 12 0.1875 L 12 0.0273438 C 5.628906 0.0273438 0.449219 4.675781 0.449219 10.429688 Z M 12 20.675781 C 5.699219 20.675781 0.609375 16.082031 0.609375 10.429688 L 0.449219 10.429688 C 0.449219 16.183594 5.628906 20.835938 12 20.835938 Z M 15.703125 20.113281 C 14.542969 20.476562 13.296875 20.675781 12 20.675781 L 12 20.835938 C 13.3125 20.835938 14.574219 20.632812 15.75 20.269531 Z M 15.710938 20.113281 C 15.707031 20.113281 15.707031 20.113281 15.703125 20.113281 L 15.75 20.269531 C 15.769531 20.261719 15.785156 20.253906 15.804688 20.246094 Z M 16.785156 19.683594 C 16.488281 19.847656 16.132812 19.988281 15.738281 20.101562 L 15.777344 20.253906 C 16.1875 20.140625 16.554688 19.996094 16.863281 19.824219 Z M 16.90625 19.710938 L 16.867188 19.6875 L 16.78125 19.824219 L 16.816406 19.847656 Z M 16.839844 19.707031 C 16.859375 19.695312 16.882812 19.699219 16.90625 19.710938 L 16.816406 19.847656 C 16.839844 19.863281 16.871094 19.863281 16.898438 19.855469 Z M 16.917969 19.710938 C 16.894531 19.695312 16.863281 19.695312 16.839844 19.707031 L 16.898438 19.855469 C 16.878906 19.863281 16.855469 19.859375 16.835938 19.847656 Z M 23.167969 21.816406 C 22.1875 21.648438 19.117188 21.042969 16.917969 19.710938 L 16.835938 19.847656 C 19.0625 21.199219 22.160156 21.808594 23.140625 21.972656 Z M 23.191406 21.761719 C 23.203125 21.773438 23.203125 21.789062 23.195312 21.800781 C 23.191406 21.808594 23.1875 21.8125 23.183594 21.816406 C 23.179688 21.816406 23.175781 21.816406 23.167969 21.816406 L 23.140625 21.972656 C 23.230469 21.992188 23.304688 21.941406 23.339844 21.875 C 23.371094 21.8125 23.371094 21.726562 23.316406 21.65625 Z M 21.492188 16.164062 C 21.570312 17.050781 21.710938 18.105469 21.976562 19.113281 C 22.238281 20.113281 22.621094 21.074219 23.191406 21.761719 L 23.316406 21.65625 C 22.769531 20.996094 22.390625 20.066406 22.132812 19.070312 C 21.871094 18.078125 21.730469 17.035156 21.65625 16.148438 Z M 21.53125 16.035156 C 21.503906 16.074219 21.492188 16.117188 21.492188 16.164062 L 21.65625 16.148438 C 21.65625 16.144531 21.65625 16.136719 21.660156 16.128906 Z M 23.386719 10.429688 C 23.386719 12.5 22.703125 14.425781 21.53125 16.035156 L 21.660156 16.128906 C 22.851562 14.496094 23.550781 12.535156 23.550781 10.429688 Z M 15.125 9.09375 C 14.789062 9.09375 14.511719 9.371094 14.511719 9.710938 L 14.671875 9.710938 C 14.671875 9.460938 14.875 9.253906 15.125 9.253906 Z M 17.210938 9.09375 L 15.125 9.09375 L 15.125 9.253906 L 17.210938 9.253906 Z M 17.828125 9.710938 C 17.828125 9.371094 17.550781 9.09375 17.210938 9.09375 L 17.210938 9.253906 C 17.464844 9.253906 17.667969 9.460938 17.667969 9.710938 Z M 17.828125 14.488281 L 17.828125 9.710938 L 17.667969 9.710938 L 17.667969 14.488281 Z M 14.589844 14.566406 L 17.746094 14.566406 L 17.746094 14.410156 L 14.589844 14.410156 Z M 14.511719 9.710938 L 14.511719 14.488281 L 14.671875 14.488281 L 14.671875 9.710938 Z M 10.503906 4.347656 C 10.503906 4.09375 10.707031 3.890625 10.957031 3.890625 L 10.957031 3.730469 C 10.617188 3.730469 10.339844 4.003906 10.339844 4.347656 Z M 10.503906 14.488281 L 10.503906 4.347656 L 10.339844 4.347656 L 10.339844 14.488281 Z M 13.5625 14.410156 L 10.421875 14.410156 L 10.421875 14.566406 L 13.5625 14.566406 Z M 13.480469 4.347656 L 13.480469 14.488281 L 13.640625 14.488281 L 13.640625 4.347656 Z M 13.027344 3.890625 C 13.277344 3.890625 13.480469 4.09375 13.480469 4.347656 L 13.640625 4.347656 C 13.640625 4.003906 13.367188 3.730469 13.027344 3.730469 Z M 10.957031 3.890625 L 13.027344 3.890625 L 13.027344 3.730469 L 10.957031 3.730469 Z M 6.785156 6.574219 C 6.445312 6.574219 6.171875 6.847656 6.171875 7.191406 L 6.332031 7.191406 C 6.332031 6.9375 6.535156 6.734375 6.785156 6.734375 Z M 8.871094 6.574219 L 6.785156 6.574219 L 6.785156 6.734375 L 8.871094 6.734375 Z M 9.484375 7.191406 C 9.484375 6.847656 9.210938 6.574219 8.871094 6.574219 L 8.871094 6.734375 C 9.121094 6.734375 9.328125 6.9375 9.328125 7.191406 Z M 9.484375 14.488281 L 9.484375 7.191406 L 9.328125 7.191406 L 9.328125 14.488281 Z M 6.25 14.566406 L 9.40625 14.566406 L 9.40625 14.410156 L 6.25 14.410156 Z M 6.171875 7.191406 L 6.171875 14.488281 L 6.332031 14.488281 L 6.332031 7.191406 Z M 6.304688 15.425781 L 17.746094 15.425781 L 17.746094 15.265625 L 6.304688 15.265625 Z M 6.386719 15.9375 L 6.386719 15.347656 L 6.222656 15.347656 L 6.222656 15.9375 Z M 17.746094 15.855469 L 6.304688 15.855469 L 6.304688 16.015625 L 17.746094 16.015625 Z M 17.667969 15.347656 L 17.667969 15.9375 L 17.828125 15.9375 L 17.828125 15.347656 Z M 17.667969 15.347656 "/>
<path style=" stroke:none;fill-rule:nonzero;fill:rgb(62.352941%,47.843137%,91.764706%);fill-opacity:1;" d="M 42.976562 16.71875 C 43.078125 16.71875 43.164062 16.753906 43.238281 16.828125 C 43.3125 16.902344 43.347656 16.988281 43.347656 17.089844 C 43.347656 17.199219 43.3125 17.292969 43.238281 17.367188 C 43.164062 17.429688 43.078125 17.460938 42.976562 17.460938 L 36.191406 17.460938 C 36.078125 17.460938 35.988281 17.421875 35.910156 17.347656 C 35.851562 17.273438 35.820312 17.1875 35.820312 17.089844 L 35.820312 4.839844 C 35.820312 4.738281 35.855469 4.652344 35.929688 4.578125 C 36.003906 4.503906 36.097656 4.464844 36.207031 4.464844 C 36.320312 4.464844 36.410156 4.503906 36.484375 4.578125 C 36.558594 4.652344 36.59375 4.738281 36.59375 4.839844 L 36.59375 17.050781 L 36.261719 16.71875 Z M 45.855469 4.464844 L 52.828125 4.464844 C 52.925781 4.464844 53.011719 4.503906 53.085938 4.578125 C 53.160156 4.652344 53.199219 4.738281 53.199219 4.839844 C 53.199219 4.949219 53.160156 5.042969 53.085938 5.117188 C 53.011719 5.179688 52.925781 5.210938 52.828125 5.210938 L 46.074219 5.210938 L 46.257812 4.894531 L 46.257812 10.648438 L 46.039062 10.386719 L 51.996094 10.386719 C 52.09375 10.386719 52.179688 10.425781 52.253906 10.5 C 52.328125 10.574219 52.363281 10.660156 52.363281 10.757812 C 52.363281 10.871094 52.328125 10.964844 52.253906 11.035156 C 52.179688 11.097656 52.09375 11.128906 51.996094 11.128906 L 46.074219 11.128906 L 46.257812 10.925781 L 46.257812 16.808594 L 46.1875 16.71875 L 52.828125 16.71875 C 52.925781 16.71875 53.011719 16.753906 53.085938 16.828125 C 53.160156 16.902344 53.199219 16.988281 53.199219 17.089844 C 53.199219 17.199219 53.160156 17.292969 53.085938 17.367188 C 53.011719 17.429688 52.925781 17.460938 52.828125 17.460938 L 45.855469 17.460938 C 45.753906 17.460938 45.667969 17.421875 45.59375 17.347656 C 45.519531 17.273438 45.484375 17.1875 45.484375 17.089844 L 45.484375 4.839844 C 45.484375 4.738281 45.519531 4.652344 45.59375 4.578125 C 45.667969 4.503906 45.753906 4.464844 45.855469 4.464844 Z M 56.351562 17.460938 C 56.238281 17.460938 56.148438 17.421875 56.074219 17.347656 C 56.011719 17.273438 55.980469 17.1875 55.980469 17.089844 L 55.980469 4.839844 C 55.980469 4.738281 56.015625 4.652344 56.089844 4.578125 C 56.164062 4.503906 56.25 4.464844 56.351562 4.464844 L 63.324219 4.464844 C 63.421875 4.464844 63.507812 4.503906 63.582031 4.578125 C 63.65625 4.652344 63.695312 4.738281 63.695312 4.839844 C 63.695312 4.949219 63.65625 5.042969 63.582031 5.117188 C 63.507812 5.179688 63.421875 5.210938 63.324219 5.210938 L 56.664062 5.210938 L 56.71875 5.132812 L 56.71875 10.480469 L 56.644531 10.332031 L 62.492188 10.332031 C 62.589844 10.332031 62.679688 10.371094 62.75 10.441406 C 62.824219 10.515625 62.859375 10.605469 62.859375 10.703125 C 62.859375 10.816406 62.824219 10.910156 62.75 10.980469 C 62.679688 11.042969 62.589844 11.074219 62.492188 11.074219 L 56.609375 11.074219 L 56.71875 10.925781 L 56.71875 17.089844 C 56.71875 17.1875 56.683594 17.273438 56.609375 17.347656 C 56.546875 17.421875 56.460938 17.460938 56.351562 17.460938 Z M 70.410156 17.460938 C 70.296875 17.460938 70.207031 17.421875 70.132812 17.347656 C 70.070312 17.273438 70.039062 17.1875 70.039062 17.089844 L 70.039062 4.910156 L 70.777344 4.910156 L 70.777344 17.089844 C 70.777344 17.1875 70.742188 17.273438 70.667969 17.347656 C 70.59375 17.421875 70.507812 17.460938 70.410156 17.460938 Z M 65.914062 5.171875 C 65.816406 5.171875 65.730469 5.140625 65.65625 5.078125 C 65.582031 5.003906 65.542969 4.917969 65.542969 4.820312 C 65.542969 4.722656 65.582031 4.640625 65.65625 4.578125 C 65.730469 4.503906 65.816406 4.464844 65.914062 4.464844 L 74.90625 4.464844 C 75.003906 4.464844 75.089844 4.503906 75.164062 4.578125 C 75.238281 4.640625 75.273438 4.722656 75.273438 4.820312 C 75.273438 4.929688 75.238281 5.015625 75.164062 5.078125 C 75.089844 5.140625 75.003906 5.171875 74.90625 5.171875 Z M 89.203125 13.398438 C 89.203125 14.019531 89.109375 14.582031 88.917969 15.09375 C 88.730469 15.605469 88.464844 16.042969 88.117188 16.414062 C 87.769531 16.785156 87.363281 17.074219 86.890625 17.273438 C 86.421875 17.472656 85.90625 17.574219 85.34375 17.574219 C 84.78125 17.574219 84.261719 17.472656 83.792969 17.273438 C 83.324219 17.074219 82.914062 16.785156 82.566406 16.414062 C 82.21875 16.042969 81.953125 15.605469 81.757812 15.09375 C 81.570312 14.582031 81.480469 14.019531 81.480469 13.398438 C 81.480469 12.78125 81.570312 12.214844 81.757812 11.707031 C 81.953125 11.195312 82.21875 10.753906 82.566406 10.382812 C 82.914062 10.011719 83.324219 9.726562 83.792969 9.523438 C 84.261719 9.324219 84.78125 9.222656 85.34375 9.222656 C 85.90625 9.222656 86.421875 9.324219 86.890625 9.523438 C 87.363281 9.726562 87.769531 10.011719 88.117188 10.382812 C 88.464844 10.753906 88.730469 11.195312 88.917969 11.707031 C 89.109375 12.214844 89.203125 12.78125 89.203125 13.398438 Z M 88.71875 13.398438 C 88.71875 12.65625 88.574219 12.007812 88.277344 11.449219 C 87.992188 10.894531 87.597656 10.460938 87.085938 10.152344 C 86.589844 9.839844 86.007812 9.6875 85.34375 9.6875 C 84.6875 9.6875 84.105469 9.839844 83.597656 10.152344 C 83.089844 10.460938 82.6875 10.894531 82.394531 11.449219 C 82.109375 12.007812 81.964844 12.65625 81.964844 13.398438 C 81.964844 14.140625 82.109375 14.792969 82.394531 15.347656 C 82.6875 15.90625 83.089844 16.339844 83.597656 16.648438 C 84.105469 16.957031 84.6875 17.113281 85.34375 17.113281 C 86.007812 17.113281 86.589844 16.957031 87.085938 16.648438 C 87.597656 16.339844 87.992188 15.90625 88.277344 15.347656 C 88.574219 14.792969 88.71875 14.140625 88.71875 13.398438 Z M 96.78125 9.339844 C 96.855469 9.339844 96.90625 9.363281 96.949219 9.410156 C 96.984375 9.449219 97.003906 9.496094 97.003906 9.558594 L 97.003906 17.203125 C 97.003906 17.289062 96.980469 17.355469 96.921875 17.402344 C 96.875 17.441406 96.824219 17.460938 96.761719 17.460938 C 96.730469 17.460938 96.695312 17.453125 96.65625 17.4375 C 96.625 17.421875 96.597656 17.398438 96.578125 17.367188 L 91.210938 10.011719 L 91.375 9.929688 L 91.375 17.261719 C 91.375 17.316406 91.351562 17.363281 91.304688 17.402344 C 91.265625 17.441406 91.214844 17.460938 91.152344 17.460938 C 91.082031 17.460938 91.03125 17.441406 90.992188 17.402344 C 90.953125 17.363281 90.933594 17.316406 90.933594 17.261719 L 90.933594 9.570312 C 90.933594 9.484375 90.957031 9.425781 91.003906 9.394531 C 91.050781 9.359375 91.097656 9.339844 91.140625 9.339844 C 91.171875 9.339844 91.203125 9.347656 91.234375 9.363281 C 91.265625 9.371094 91.292969 9.390625 91.316406 9.421875 L 96.65625 16.730469 L 96.566406 16.960938 L 96.566406 9.558594 C 96.566406 9.496094 96.585938 9.449219 96.636719 9.410156 C 96.679688 9.363281 96.730469 9.339844 96.78125 9.339844 Z M 106.628906 17.460938 C 106.503906 17.460938 106.402344 17.421875 106.332031 17.347656 C 106.269531 17.273438 106.238281 17.1875 106.238281 17.089844 L 106.238281 4.839844 C 106.238281 4.738281 106.277344 4.652344 106.347656 4.578125 C 106.421875 4.503906 106.507812 4.464844 106.609375 4.464844 L 111.492188 4.464844 C 112.21875 4.464844 112.855469 4.613281 113.398438 4.910156 C 113.953125 5.195312 114.386719 5.59375 114.691406 6.101562 C 115 6.605469 115.15625 7.183594 115.15625 7.824219 C 115.15625 8.394531 115.046875 8.910156 114.839844 9.367188 C 114.644531 9.824219 114.359375 10.207031 113.988281 10.515625 C 113.632812 10.816406 113.21875 11.03125 112.75 11.167969 L 111.898438 11.019531 C 112.390625 11.019531 112.859375 11.148438 113.304688 11.410156 C 113.746094 11.65625 114.113281 12.027344 114.394531 12.519531 C 114.679688 13.003906 114.820312 13.597656 114.820312 14.304688 C 114.820312 14.910156 114.847656 15.375 114.894531 15.699219 C 114.957031 16.003906 115.03125 16.234375 115.117188 16.382812 C 115.214844 16.53125 115.328125 16.648438 115.449219 16.734375 C 115.523438 16.785156 115.582031 16.847656 115.617188 16.921875 C 115.65625 16.996094 115.660156 17.082031 115.636719 17.183594 C 115.613281 17.253906 115.566406 17.316406 115.507812 17.367188 C 115.457031 17.402344 115.402344 17.429688 115.339844 17.441406 C 115.277344 17.453125 115.210938 17.441406 115.136719 17.402344 C 114.960938 17.304688 114.792969 17.15625 114.621094 16.957031 C 114.457031 16.761719 114.324219 16.457031 114.210938 16.050781 C 114.101562 15.640625 114.042969 15.058594 114.042969 14.304688 C 114.042969 13.722656 113.953125 13.257812 113.769531 12.914062 C 113.59375 12.566406 113.367188 12.300781 113.082031 12.113281 C 112.8125 11.929688 112.515625 11.804688 112.195312 11.742188 C 111.886719 11.679688 111.601562 11.652344 111.34375 11.652344 L 106.847656 11.652344 L 107.015625 11.425781 L 107.015625 17.089844 C 107.015625 17.1875 106.980469 17.273438 106.902344 17.347656 C 106.832031 17.421875 106.738281 17.460938 106.628906 17.460938 Z M 106.832031 10.910156 L 111.585938 10.910156 C 112.078125 10.855469 112.53125 10.710938 112.953125 10.460938 C 113.375 10.214844 113.710938 9.867188 113.972656 9.421875 C 114.242188 8.976562 114.378906 8.449219 114.378906 7.847656 C 114.378906 7.089844 114.105469 6.464844 113.5625 5.96875 C 113.035156 5.464844 112.3125 5.210938 111.398438 5.210938 L 106.921875 5.210938 L 107.015625 5.078125 L 107.015625 11.113281 Z M 118.890625 4.464844 L 125.867188 4.464844 C 125.964844 4.464844 126.050781 4.503906 126.125 4.578125 C 126.199219 4.652344 126.238281 4.738281 126.238281 4.839844 C 126.238281 4.949219 126.199219 5.042969 126.125 5.117188 C 126.050781 5.179688 125.964844 5.210938 125.867188 5.210938 L 119.113281 5.210938 L 119.300781 4.894531 L 119.300781 10.648438 L 119.078125 10.386719 L 125.035156 10.386719 C 125.132812 10.386719 125.21875 10.425781 125.292969 10.5 C 125.367188 10.574219 125.40625 10.660156 125.40625 10.757812 C 125.40625 10.871094 125.367188 10.964844 125.292969 11.035156 C 125.21875 11.097656 125.132812 11.128906 125.035156 11.128906 L 119.113281 11.128906 L 119.300781 10.925781 L 119.300781 16.808594 L 119.226562 16.71875 L 125.867188 16.71875 C 125.964844 16.71875 126.050781 16.753906 126.125 16.828125 C 126.199219 16.902344 126.238281 16.988281 126.238281 17.089844 C 126.238281 17.199219 126.199219 17.292969 126.125 17.367188 C 126.050781 17.429688 125.964844 17.460938 125.867188 17.460938 L 118.890625 17.460938 C 118.792969 17.460938 118.707031 17.421875 118.632812 17.347656 C 118.558594 17.273438 118.523438 17.1875 118.523438 17.089844 L 118.523438 4.839844 C 118.523438 4.738281 118.558594 4.652344 118.632812 4.578125 C 118.707031 4.503906 118.792969 4.464844 118.890625 4.464844 Z M 133.21875 5.414062 L 128.535156 17.21875 C 128.511719 17.292969 128.46875 17.355469 128.40625 17.402344 C 128.347656 17.441406 128.277344 17.460938 128.203125 17.460938 C 128.082031 17.460938 127.988281 17.429688 127.929688 17.367188 C 127.867188 17.304688 127.828125 17.230469 127.816406 17.144531 C 127.804688 17.09375 127.8125 17.035156 127.835938 16.957031 L 132.8125 4.667969 C 132.847656 4.570312 132.890625 4.511719 132.941406 4.484375 C 133 4.449219 133.078125 4.429688 133.164062 4.429688 C 133.261719 4.429688 133.339844 4.453125 133.402344 4.503906 C 133.464844 4.542969 133.507812 4.597656 133.53125 4.667969 L 138.507812 16.957031 C 138.519531 16.996094 138.527344 17.042969 138.527344 17.105469 C 138.527344 17.21875 138.488281 17.304688 138.417969 17.367188 C 138.34375 17.429688 138.25 17.460938 138.140625 17.460938 C 138.054688 17.460938 137.972656 17.441406 137.898438 17.402344 C 137.835938 17.355469 137.792969 17.292969 137.769531 17.21875 L 132.941406 5.265625 Z M 129.796875 13.433594 L 130.054688 12.691406 L 136.046875 12.691406 L 136.230469 13.433594 Z M 146.210938 4.464844 C 147.136719 4.464844 147.9375 4.644531 148.617188 5.003906 C 149.292969 5.351562 149.851562 5.832031 150.28125 6.453125 C 150.726562 7.058594 151.054688 7.753906 151.265625 8.53125 C 151.472656 9.308594 151.574219 10.121094 151.574219 10.964844 C 151.574219 12.152344 151.386719 13.238281 151.003906 14.230469 C 150.632812 15.207031 150.054688 15.992188 149.261719 16.585938 C 148.476562 17.167969 147.457031 17.460938 146.210938 17.460938 L 141.402344 17.460938 C 141.304688 17.460938 141.21875 17.421875 141.144531 17.347656 C 141.070312 17.273438 141.03125 17.1875 141.03125 17.089844 L 141.03125 4.839844 C 141.03125 4.738281 141.070312 4.652344 141.144531 4.578125 C 141.21875 4.503906 141.304688 4.464844 141.402344 4.464844 Z M 146.027344 16.71875 C 147.160156 16.71875 148.074219 16.464844 148.765625 15.957031 C 149.46875 15.4375 149.980469 14.746094 150.300781 13.878906 C 150.632812 13 150.800781 12.027344 150.800781 10.964844 C 150.800781 10.207031 150.707031 9.484375 150.523438 8.792969 C 150.351562 8.097656 150.074219 7.484375 149.691406 6.953125 C 149.308594 6.410156 148.8125 5.984375 148.210938 5.671875 C 147.605469 5.363281 146.878906 5.210938 146.027344 5.210938 L 141.699219 5.210938 L 141.808594 5.058594 L 141.808594 16.882812 L 141.699219 16.71875 Z M 146.027344 16.71875 "/>
</g>
</svg>
