<svg width="1006" height="161" viewBox="0 0 1006 161" fill="none" xmlns="http://www.w3.org/2000/svg">
<path d="M276.625 119.405C277.287 119.405 277.866 119.653 278.363 120.15C278.859 120.646 279.108 121.225 279.108 121.887C279.108 122.632 278.859 123.253 278.363 123.749C277.866 124.163 277.287 124.37 276.625 124.37H231.073C230.328 124.37 229.707 124.121 229.211 123.625C228.797 123.128 228.59 122.549 228.59 121.887V39.9671C228.59 39.3051 228.838 38.7259 229.335 38.2294C229.831 37.7329 230.452 37.4847 231.197 37.4847C231.941 37.4847 232.562 37.7329 233.059 38.2294C233.555 38.7259 233.803 39.3051 233.803 39.9671V121.639L231.569 119.405H276.625ZM295.921 37.4847H342.715C343.377 37.4847 343.956 37.7329 344.452 38.2294C344.949 38.7259 345.197 39.3051 345.197 39.9671C345.197 40.7119 344.949 41.3325 344.452 41.8289C343.956 42.2427 343.377 42.4495 342.715 42.4495H297.41L298.652 40.3395V78.8171L297.162 77.0794H337.129C337.791 77.0794 338.37 77.3277 338.867 77.8241C339.363 78.3206 339.612 78.8999 339.612 79.5618C339.612 80.3066 339.363 80.9272 338.867 81.4237C338.37 81.8374 337.791 82.0443 337.129 82.0443H297.41L298.652 80.6789V120.025L298.155 119.405H342.715C343.377 119.405 343.956 119.653 344.452 120.15C344.949 120.646 345.197 121.225 345.197 121.887C345.197 122.632 344.949 123.253 344.452 123.749C343.956 124.163 343.377 124.37 342.715 124.37H295.921C295.259 124.37 294.68 124.121 294.183 123.625C293.687 123.128 293.438 122.549 293.438 121.887V39.9671C293.438 39.3051 293.687 38.7259 294.183 38.2294C294.68 37.7329 295.259 37.4847 295.921 37.4847ZM366.345 124.37C365.601 124.37 364.98 124.121 364.483 123.625C364.07 123.128 363.863 122.549 363.863 121.887V39.9671C363.863 39.3051 364.111 38.7259 364.608 38.2294C365.104 37.7329 365.683 37.4847 366.345 37.4847H413.139C413.801 37.4847 414.38 37.7329 414.877 38.2294C415.373 38.7259 415.621 39.3051 415.621 39.9671C415.621 40.7119 415.373 41.3325 414.877 41.8289C414.38 42.2427 413.801 42.4495 413.139 42.4495H368.455L368.828 41.9531V77.7L368.331 76.707H407.554C408.216 76.707 408.795 76.9553 409.291 77.4518C409.788 77.9483 410.036 78.5275 410.036 79.1895C410.036 79.9342 409.788 80.5548 409.291 81.0513C408.795 81.465 408.216 81.6719 407.554 81.6719H368.083L368.828 80.6789V121.887C368.828 122.549 368.579 123.128 368.083 123.625C367.669 124.121 367.09 124.37 366.345 124.37ZM460.682 124.37C459.937 124.37 459.316 124.121 458.82 123.625C458.406 123.128 458.199 122.549 458.199 121.887V40.4636H463.164V121.887C463.164 122.549 462.916 123.128 462.419 123.625C461.923 124.121 461.344 124.37 460.682 124.37ZM430.52 42.2013C429.858 42.2013 429.279 41.9944 428.782 41.5807C428.286 41.0842 428.038 40.505 428.038 39.843C428.038 39.181 428.286 38.6432 428.782 38.2294C429.279 37.7329 429.858 37.4847 430.52 37.4847H490.843C491.505 37.4847 492.084 37.7329 492.581 38.2294C493.077 38.6432 493.326 39.181 493.326 39.843C493.326 40.5877 493.077 41.167 492.581 41.5807C492.084 41.9944 491.505 42.2013 490.843 42.2013H430.52ZM586.787 97.2181C586.787 101.355 586.14 105.131 584.848 108.544C583.606 111.958 581.822 114.905 579.495 117.388C577.168 119.87 574.426 121.784 571.272 123.128C568.117 124.473 564.652 125.145 560.877 125.145C557.101 125.145 553.636 124.473 550.481 123.128C547.327 121.784 544.586 119.87 542.258 117.388C539.931 114.905 538.121 111.958 536.828 108.544C535.587 105.131 534.966 101.355 534.966 97.2181C534.966 93.0807 535.587 89.3054 536.828 85.892C538.121 82.4787 539.931 79.5308 542.258 77.0484C544.586 74.566 547.327 72.6524 550.481 71.3078C553.636 69.9631 557.101 69.2908 560.877 69.2908C564.652 69.2908 568.117 69.9631 571.272 71.3078C574.426 72.6524 577.168 74.566 579.495 77.0484C581.822 79.5308 583.606 82.4787 584.848 85.892C586.14 89.3054 586.787 93.0807 586.787 97.2181ZM583.529 97.2181C583.529 92.2533 582.546 87.909 580.581 84.1854C578.667 80.4617 576.004 77.5656 572.591 75.4969C569.229 73.4282 565.324 72.3938 560.877 72.3938C556.481 72.3938 552.576 73.4282 549.163 75.4969C545.749 77.5656 543.06 80.4617 541.095 84.1854C539.181 87.909 538.224 92.2533 538.224 97.2181C538.224 102.183 539.181 106.527 541.095 110.251C543.06 113.974 545.749 116.871 549.163 118.939C552.576 121.008 556.481 122.042 560.877 122.042C565.324 122.042 569.229 121.008 572.591 118.939C576.004 116.871 578.667 113.974 580.581 110.251C582.546 106.527 583.529 102.183 583.529 97.2181ZM637.644 70.0666C638.109 70.0666 638.471 70.2217 638.73 70.532C638.988 70.7906 639.118 71.1268 639.118 71.5405V122.663C639.118 123.232 638.937 123.671 638.575 123.982C638.264 124.24 637.902 124.37 637.488 124.37C637.282 124.37 637.049 124.318 636.79 124.215C636.583 124.111 636.402 123.956 636.247 123.749L600.252 74.566L601.338 74.0229V123.051C601.338 123.413 601.183 123.723 600.873 123.982C600.614 124.24 600.278 124.37 599.864 124.37C599.399 124.37 599.037 124.24 598.778 123.982C598.519 123.723 598.39 123.413 598.39 123.051V71.6181C598.39 71.0492 598.545 70.6613 598.856 70.4544C599.166 70.1959 599.476 70.0666 599.787 70.0666C599.993 70.0666 600.2 70.1183 600.407 70.2217C600.614 70.2734 600.795 70.4027 600.95 70.6096L636.79 119.482L636.17 121.034V71.5405C636.17 71.1268 636.325 70.7906 636.635 70.532C636.945 70.2217 637.282 70.0666 637.644 70.0666ZM703.682 124.37C702.855 124.37 702.193 124.121 701.696 123.625C701.283 123.128 701.076 122.549 701.076 121.887V39.9671C701.076 39.3051 701.324 38.7259 701.821 38.2294C702.317 37.7329 702.896 37.4847 703.558 37.4847H736.326C741.208 37.4847 745.47 38.4777 749.111 40.4636C752.834 42.3668 755.731 45.0147 757.799 48.4074C759.868 51.8 760.902 55.6478 760.902 59.9507C760.902 63.7571 760.199 67.1911 758.792 70.2527C757.468 73.3144 755.565 75.8796 753.083 77.9483C750.683 79.9342 747.911 81.3823 744.767 82.2925L739.057 81.2995C742.367 81.2995 745.511 82.1684 748.49 83.9061C751.469 85.561 753.91 88.0435 755.813 91.3534C757.716 94.5805 758.668 98.5524 758.668 103.269C758.668 107.324 758.834 110.427 759.165 112.578C759.578 114.647 760.075 116.178 760.654 117.171C761.316 118.164 762.061 118.95 762.888 119.529C763.385 119.86 763.757 120.274 764.005 120.77C764.254 121.267 764.295 121.846 764.13 122.508C763.964 123.004 763.674 123.418 763.261 123.749C762.93 123.997 762.557 124.163 762.143 124.246C761.73 124.328 761.275 124.246 760.778 123.997C759.62 123.335 758.461 122.342 757.303 121.018C756.227 119.694 755.317 117.667 754.572 114.936C753.827 112.206 753.455 108.317 753.455 103.269C753.455 99.3799 752.834 96.2769 751.593 93.9599C750.435 91.643 748.904 89.8639 747.001 88.6227C745.18 87.3815 743.194 86.554 741.043 86.1403C738.974 85.7265 737.071 85.5197 735.333 85.5197H705.172L706.289 84.0302V121.887C706.289 122.549 706.041 123.128 705.544 123.625C705.048 124.121 704.427 124.37 703.682 124.37ZM705.048 80.5548H736.947C740.257 80.2238 743.318 79.2309 746.132 77.5759C748.945 75.9209 751.221 73.604 752.959 70.6251C754.779 67.6462 755.689 64.1294 755.689 60.0748C755.689 55.0272 753.869 50.8484 750.228 47.5385C746.67 44.1459 741.829 42.4495 735.706 42.4495H705.668L706.289 41.5807V81.9201L705.048 80.5548ZM785.982 37.4847H832.776C833.438 37.4847 834.017 37.7329 834.514 38.2294C835.01 38.7259 835.258 39.3051 835.258 39.9671C835.258 40.7119 835.01 41.3325 834.514 41.8289C834.017 42.2427 833.438 42.4495 832.776 42.4495H787.471L788.713 40.3395V78.8171L787.223 77.0794H827.19C827.852 77.0794 828.432 77.3277 828.928 77.8241C829.425 78.3206 829.673 78.8999 829.673 79.5618C829.673 80.3066 829.425 80.9272 828.928 81.4237C828.432 81.8374 827.852 82.0443 827.19 82.0443H787.471L788.713 80.6789V120.025L788.216 119.405H832.776C833.438 119.405 834.017 119.653 834.514 120.15C835.01 120.646 835.258 121.225 835.258 121.887C835.258 122.632 835.01 123.253 834.514 123.749C834.017 124.163 833.438 124.37 832.776 124.37H785.982C785.32 124.37 784.741 124.121 784.244 123.625C783.748 123.128 783.5 122.549 783.5 121.887V39.9671C783.5 39.3051 783.748 38.7259 784.244 38.2294C784.741 37.7329 785.32 37.4847 785.982 37.4847ZM882.1 43.8149L850.697 122.756C850.531 123.253 850.242 123.666 849.828 123.997C849.414 124.246 848.959 124.37 848.463 124.37C847.635 124.37 847.015 124.163 846.601 123.749C846.187 123.335 845.939 122.839 845.856 122.26C845.773 121.929 845.815 121.515 845.98 121.018L879.369 38.85C879.617 38.188 879.907 37.7743 880.238 37.6088C880.652 37.3606 881.148 37.2365 881.727 37.2365C882.389 37.2365 882.927 37.4019 883.341 37.7329C883.755 37.9812 884.044 38.3535 884.21 38.85L917.598 121.018C917.681 121.267 917.722 121.598 917.722 122.011C917.722 122.756 917.474 123.335 916.978 123.749C916.481 124.163 915.861 124.37 915.116 124.37C914.537 124.37 913.999 124.246 913.502 123.997C913.089 123.666 912.799 123.253 912.633 122.756L880.238 42.8219L882.1 43.8149ZM859.137 97.4353L860.875 92.4705H901.09L902.331 97.4353H859.137ZM969.284 37.4847C975.491 37.4847 980.869 38.6845 985.42 41.0842C989.971 43.4011 993.695 46.6283 996.591 50.7657C999.57 54.8203 1001.76 59.4542 1003.17 64.6673C1004.58 69.8804 1005.28 75.3003 1005.28 80.9272C1005.28 88.8709 1004 96.1527 1001.43 102.773C998.95 109.31 995.06 114.564 989.765 118.536C984.469 122.425 977.642 124.37 969.284 124.37H937.013C936.351 124.37 935.772 124.121 935.275 123.625C934.779 123.128 934.531 122.549 934.531 121.887V39.9671C934.531 39.3051 934.779 38.7259 935.275 38.2294C935.772 37.7329 936.351 37.4847 937.013 37.4847H969.284ZM968.043 119.405C975.656 119.405 981.779 117.708 986.413 114.316C991.13 110.84 994.564 106.207 996.715 100.414C998.95 94.5392 1000.07 88.0435 1000.07 80.9272C1000.07 75.8796 999.446 71.0388 998.205 66.405C997.046 61.7711 995.185 57.6751 992.619 54.117C990.054 50.4761 986.744 47.6213 982.69 45.5526C978.635 43.4839 973.753 42.4495 968.043 42.4495H938.999L939.744 41.4566V120.522L938.999 119.405H968.043Z" fill="#9086D6"/>
<path fill-rule="evenodd" clip-rule="evenodd" d="M170.073 76.2892C170.073 34.2665 132.044 0.197998 85.1355 0.197998C38.2266 0.197998 0.197998 34.2665 0.197998 76.2892C0.197998 118.313 38.2266 152.381 85.1355 152.381C94.8044 152.381 104.084 150.906 112.741 148.236C112.826 148.21 112.9 148.173 112.966 148.127C115.951 147.303 118.621 146.248 120.872 145.012L121.134 145.183C121.152 145.194 121.176 145.196 121.197 145.188C121.217 145.181 121.239 145.182 121.257 145.192C137.637 155.067 160.481 159.554 167.754 160.79C168.503 160.918 168.968 159.998 168.483 159.413C160.225 149.472 157.17 131.546 156.051 118.485C156.035 118.295 156.088 118.107 156.202 117.953C164.963 105.981 170.073 91.674 170.073 76.2892ZM104.34 70.9898C104.34 68.8055 106.113 67.035 108.301 67.035H123.743C125.93 67.035 127.703 68.8055 127.703 70.9898V106.188H104.34V70.9898ZM77.4139 27.4865C75.2269 27.4865 73.4541 29.2571 73.4541 31.4413V106.188H96.7064V31.4413C96.7064 29.2571 94.9335 27.4865 92.7466 27.4865H77.4139ZM42.5677 52.402C42.5677 50.2178 44.3405 48.4472 46.5275 48.4472H61.9707C64.1577 48.4472 65.9305 50.2178 65.9305 52.402V106.188H42.5677V52.402ZM127.703 112.516H42.9637V116.866H127.703V112.516Z" fill="url(#paint0_linear_607_24)"/>
<path d="M112.741 148.236L112.799 148.425H112.8L112.741 148.236ZM112.966 148.126L112.914 147.936L112.88 147.945L112.852 147.965L112.966 148.126ZM120.872 145.012L120.981 144.846L120.88 144.781L120.777 144.839L120.872 145.012ZM121.134 145.182L121.242 145.017L121.134 145.182ZM121.197 145.188L121.123 145.004H121.122L121.197 145.188ZM121.257 145.193L121.359 145.023L121.257 145.193ZM167.754 160.791L167.787 160.596L167.754 160.791ZM168.483 159.413L168.635 159.287L168.483 159.413ZM156.051 118.485L155.854 118.501L156.051 118.485ZM156.202 117.952L156.042 117.835L156.202 117.952ZM127.703 106.187V106.385H127.901V106.187H127.703ZM104.34 106.187H104.143V106.385H104.34V106.187ZM73.4541 106.187H73.2561V106.385H73.4541V106.187ZM96.7064 106.187V106.385H96.9043V106.187H96.7064ZM65.9305 106.187V106.385H66.1284V106.187H65.9305ZM42.5677 106.187H42.3698V106.385H42.5677V106.187ZM42.9637 112.516V112.318H42.7657V112.516H42.9637ZM127.703 112.516H127.901V112.318H127.703V112.516ZM42.9637 116.866H42.7657V117.064H42.9637V116.866ZM127.703 116.866V117.064H127.901V116.866H127.703ZM85.1355 0.395485C131.956 0.395485 169.875 34.3951 169.875 76.289H170.271C170.271 34.1373 132.133 0 85.1355 0V0.395485ZM0.395979 76.289C0.395979 34.3951 38.3151 0.395485 85.1355 0.395485V0C38.1379 0 0 34.1373 0 76.289H0.395979ZM85.1355 152.183C38.3151 152.183 0.395979 118.183 0.395979 76.289H0C0 118.441 38.1379 152.578 85.1355 152.578V152.183ZM112.682 148.047C104.043 150.711 94.7842 152.183 85.1355 152.183V152.578C94.825 152.578 104.123 151.1 112.799 148.425L112.682 148.047ZM112.852 147.965C112.804 147.999 112.747 148.027 112.682 148.047L112.8 148.425C112.903 148.393 112.998 148.346 113.08 148.287L112.852 147.965ZM120.777 144.839C118.542 146.066 115.886 147.115 112.914 147.936L113.018 148.316C116.016 147.491 118.701 146.43 120.967 145.184L120.777 144.839ZM121.242 145.017L120.981 144.846L120.765 145.177L121.026 145.348L121.242 145.017ZM121.122 145.004C121.161 144.989 121.205 144.993 121.242 145.017L121.025 145.348C121.1 145.395 121.191 145.404 121.27 145.372L121.122 145.004ZM121.359 145.023C121.286 144.98 121.199 144.974 121.123 145.004L121.269 145.372C121.234 145.386 121.192 145.384 121.154 145.362L121.359 145.023ZM167.787 160.596C160.515 159.359 137.705 154.876 121.359 145.023L121.154 145.362C137.57 155.257 160.447 159.748 167.72 160.985L167.787 160.596ZM168.331 159.539C168.517 159.763 168.522 160.052 168.405 160.278C168.29 160.5 168.064 160.643 167.787 160.596L167.72 160.985C168.192 161.066 168.574 160.811 168.757 160.46C168.939 160.11 168.935 159.648 168.635 159.287L168.331 159.539ZM155.854 118.501C156.413 125.038 157.459 132.798 159.398 140.169C161.338 147.537 164.175 154.537 168.331 159.539L168.635 159.287C164.533 154.349 161.714 147.414 159.781 140.068C157.849 132.727 156.807 124.992 156.248 118.468L155.854 118.501ZM156.042 117.835C155.901 118.028 155.833 118.262 155.854 118.501L156.248 118.468C156.236 118.327 156.277 118.186 156.363 118.069L156.042 117.835ZM169.875 76.289C169.875 91.6287 164.78 105.896 156.042 117.835L156.361 118.069C165.146 106.066 170.271 91.7185 170.271 76.289H169.875ZM108.301 66.837C106.004 66.837 104.143 68.6961 104.143 70.9896H104.539C104.539 68.9145 106.223 67.2324 108.301 67.2324V66.837ZM123.743 66.837H108.301V67.2324H123.743V66.837ZM127.901 70.9896C127.901 68.6961 126.04 66.837 123.743 66.837V67.2324C125.821 67.2324 127.505 68.9145 127.505 70.9896H127.901ZM127.901 106.187V70.9896H127.505V106.187H127.901ZM104.34 106.385H127.703V105.99H104.34V106.385ZM104.143 70.9896V106.187H104.539V70.9896H104.143ZM73.6521 31.4411C73.6521 29.3661 75.3362 27.6839 77.4139 27.6839V27.2885C75.1176 27.2885 73.2561 29.1476 73.2561 31.4411H73.6521ZM73.6521 106.187V31.4411H73.2561V106.187H73.6521ZM96.7064 105.99H73.4541V106.385H96.7064V105.99ZM96.5084 31.4411V106.187H96.9043V31.4411H96.5084ZM92.7466 27.6839C94.8243 27.6839 96.5084 29.3661 96.5084 31.4411H96.9043C96.9043 29.1476 95.0428 27.2885 92.7466 27.2885V27.6839ZM77.4139 27.6839H92.7466V27.2885H77.4139V27.6839ZM46.5275 48.2492C44.2313 48.2492 42.3698 50.1083 42.3698 52.4018H42.7657C42.7657 50.3267 44.4498 48.6446 46.5275 48.6446V48.2492ZM61.9707 48.2492H46.5275V48.6446H61.9707V48.2492ZM66.1284 52.4018C66.1284 50.1083 64.2669 48.2492 61.9707 48.2492V48.6446C64.0484 48.6446 65.7325 50.3267 65.7325 52.4018H66.1284ZM66.1284 106.187V52.4018H65.7325V106.187H66.1284ZM42.5677 106.385H65.9305V105.99H42.5677V106.385ZM42.3698 52.4018V106.187H42.7657V52.4018H42.3698ZM42.9637 112.713H127.703V112.318H42.9637V112.713ZM43.1616 116.866V112.516H42.7657V116.866H43.1616ZM127.703 116.669H42.9637V117.064H127.703V116.669ZM127.505 112.516V116.866H127.901V112.516H127.505Z" fill="#9A8D8D"/>
<path d="M112.741 148.236L112.799 148.425H112.8L112.741 148.236ZM112.966 148.126L112.914 147.936L112.88 147.945L112.852 147.965L112.966 148.126ZM120.872 145.012L120.981 144.846L120.88 144.781L120.777 144.839L120.872 145.012ZM121.134 145.182L121.242 145.017L121.134 145.182ZM121.197 145.188L121.123 145.004H121.122L121.197 145.188ZM121.257 145.193L121.359 145.023L121.257 145.193ZM167.754 160.791L167.787 160.596L167.754 160.791ZM168.483 159.413L168.635 159.287L168.483 159.413ZM156.051 118.485L155.854 118.501L156.051 118.485ZM156.202 117.952L156.042 117.835L156.202 117.952ZM127.703 106.187V106.385H127.901V106.187H127.703ZM104.34 106.187H104.143V106.385H104.34V106.187ZM73.4541 106.187H73.2561V106.385H73.4541V106.187ZM96.7064 106.187V106.385H96.9043V106.187H96.7064ZM65.9305 106.187V106.385H66.1284V106.187H65.9305ZM42.5677 106.187H42.3698V106.385H42.5677V106.187ZM42.9637 112.516V112.318H42.7657V112.516H42.9637ZM127.703 112.516H127.901V112.318H127.703V112.516ZM42.9637 116.866H42.7657V117.064H42.9637V116.866ZM127.703 116.866V117.064H127.901V116.866H127.703ZM85.1355 0.395485C131.956 0.395485 169.875 34.3951 169.875 76.289H170.271C170.271 34.1373 132.133 0 85.1355 0V0.395485ZM0.395979 76.289C0.395979 34.3951 38.3151 0.395485 85.1355 0.395485V0C38.1379 0 0 34.1373 0 76.289H0.395979ZM85.1355 152.183C38.3151 152.183 0.395979 118.183 0.395979 76.289H0C0 118.441 38.1379 152.578 85.1355 152.578V152.183ZM112.682 148.047C104.043 150.711 94.7842 152.183 85.1355 152.183V152.578C94.825 152.578 104.123 151.1 112.799 148.425L112.682 148.047ZM112.852 147.965C112.804 147.999 112.747 148.027 112.682 148.047L112.8 148.425C112.903 148.393 112.998 148.346 113.08 148.287L112.852 147.965ZM120.777 144.839C118.542 146.066 115.886 147.115 112.914 147.936L113.018 148.316C116.016 147.491 118.701 146.43 120.967 145.184L120.777 144.839ZM121.242 145.017L120.981 144.846L120.765 145.177L121.026 145.348L121.242 145.017ZM121.122 145.004C121.161 144.989 121.205 144.993 121.242 145.017L121.025 145.348C121.1 145.395 121.191 145.404 121.27 145.372L121.122 145.004ZM121.359 145.023C121.286 144.98 121.199 144.974 121.123 145.004L121.269 145.372C121.234 145.386 121.192 145.384 121.154 145.362L121.359 145.023ZM167.787 160.596C160.515 159.359 137.705 154.876 121.359 145.023L121.154 145.362C137.57 155.257 160.447 159.748 167.72 160.985L167.787 160.596ZM168.331 159.539C168.517 159.763 168.522 160.052 168.405 160.278C168.29 160.5 168.064 160.643 167.787 160.596L167.72 160.985C168.192 161.066 168.574 160.811 168.757 160.46C168.939 160.11 168.935 159.648 168.635 159.287L168.331 159.539ZM155.854 118.501C156.413 125.038 157.459 132.798 159.398 140.169C161.338 147.537 164.175 154.537 168.331 159.539L168.635 159.287C164.533 154.349 161.714 147.414 159.781 140.068C157.849 132.727 156.807 124.992 156.248 118.468L155.854 118.501ZM156.042 117.835C155.901 118.028 155.833 118.262 155.854 118.501L156.248 118.468C156.236 118.327 156.277 118.186 156.363 118.069L156.042 117.835ZM169.875 76.289C169.875 91.6287 164.78 105.896 156.042 117.835L156.361 118.069C165.146 106.066 170.271 91.7185 170.271 76.289H169.875ZM108.301 66.837C106.004 66.837 104.143 68.6961 104.143 70.9896H104.539C104.539 68.9145 106.223 67.2324 108.301 67.2324V66.837ZM123.743 66.837H108.301V67.2324H123.743V66.837ZM127.901 70.9896C127.901 68.6961 126.04 66.837 123.743 66.837V67.2324C125.821 67.2324 127.505 68.9145 127.505 70.9896H127.901ZM127.901 106.187V70.9896H127.505V106.187H127.901ZM104.34 106.385H127.703V105.99H104.34V106.385ZM104.143 70.9896V106.187H104.539V70.9896H104.143ZM73.6521 31.4411C73.6521 29.3661 75.3362 27.6839 77.4139 27.6839V27.2885C75.1176 27.2885 73.2561 29.1476 73.2561 31.4411H73.6521ZM73.6521 106.187V31.4411H73.2561V106.187H73.6521ZM96.7064 105.99H73.4541V106.385H96.7064V105.99ZM96.5084 31.4411V106.187H96.9043V31.4411H96.5084ZM92.7466 27.6839C94.8243 27.6839 96.5084 29.3661 96.5084 31.4411H96.9043C96.9043 29.1476 95.0428 27.2885 92.7466 27.2885V27.6839ZM77.4139 27.6839H92.7466V27.2885H77.4139V27.6839ZM46.5275 48.2492C44.2313 48.2492 42.3698 50.1083 42.3698 52.4018H42.7657C42.7657 50.3267 44.4498 48.6446 46.5275 48.6446V48.2492ZM61.9707 48.2492H46.5275V48.6446H61.9707V48.2492ZM66.1284 52.4018C66.1284 50.1083 64.2669 48.2492 61.9707 48.2492V48.6446C64.0484 48.6446 65.7325 50.3267 65.7325 52.4018H66.1284ZM66.1284 106.187V52.4018H65.7325V106.187H66.1284ZM42.5677 106.385H65.9305V105.99H42.5677V106.385ZM42.3698 52.4018V106.187H42.7657V52.4018H42.3698ZM42.9637 112.713H127.703V112.318H42.9637V112.713ZM43.1616 116.866V112.516H42.7657V116.866H43.1616ZM127.703 116.669H42.9637V117.064H127.703V116.669ZM127.505 112.516V116.866H127.901V112.516H127.505Z" fill="#9A8D8D"/>
<defs>
<linearGradient id="paint0_linear_607_24" x1="85.1355" y1="0.197998" x2="85.1355" y2="160.802" gradientUnits="userSpaceOnUse">
<stop stop-color="#7B8CDE"/>
<stop offset="1" stop-color="#A480CF"/>
</linearGradient>
</defs>
</svg>
