<svg width="2715" height="409" viewBox="0 0 2715 409" fill="none" xmlns="http://www.w3.org/2000/svg">
<path d="M683.896 311.001C685.741 311.001 687.356 311.693 688.74 313.077C690.124 314.46 690.816 316.075 690.816 317.919C690.816 319.995 690.124 321.725 688.74 323.108C687.356 324.261 685.741 324.838 683.896 324.838H556.92C554.844 324.838 553.114 324.146 551.73 322.762C550.577 321.379 550 319.764 550 317.919V89.6103C550 87.7654 550.692 86.1511 552.076 84.7674C553.46 83.3837 555.19 82.6919 557.266 82.6919C559.342 82.6919 561.072 83.3837 562.455 84.7674C563.839 86.1511 564.531 87.7654 564.531 89.6103V317.228L558.304 311.001H683.896ZM737.682 82.6919H868.119C869.964 82.6919 871.578 83.3837 872.962 84.7674C874.346 86.1511 875.038 87.7654 875.038 89.6103C875.038 91.6859 874.346 93.4155 872.962 94.7992C871.578 95.9522 869.964 96.5288 868.119 96.5288H741.834L745.294 90.6481V197.884L741.142 193.041H852.549C854.395 193.041 856.009 193.733 857.393 195.117C858.777 196.501 859.469 198.115 859.469 199.96C859.469 202.035 858.777 203.765 857.393 205.149C856.009 206.302 854.395 206.878 852.549 206.878H741.834L745.294 203.073V312.731L743.91 311.001H868.119C869.964 311.001 871.578 311.693 872.962 313.077C874.346 314.46 875.038 316.075 875.038 317.919C875.038 319.995 874.346 321.725 872.962 323.108C871.578 324.261 869.964 324.838 868.119 324.838H737.682C735.837 324.838 734.223 324.146 732.839 322.762C731.455 321.379 730.763 319.764 730.763 317.919V89.6103C730.763 87.7654 731.455 86.1511 732.839 84.7674C734.223 83.3837 735.837 82.6919 737.682 82.6919ZM933.988 324.838C931.912 324.838 930.183 324.146 928.799 322.762C927.645 321.379 927.069 319.764 927.069 317.919V89.6103C927.069 87.7654 927.761 86.1511 929.145 84.7674C930.529 83.3837 932.143 82.6919 933.988 82.6919H1064.42C1066.27 82.6919 1067.88 83.3837 1069.27 84.7674C1070.65 86.1511 1071.34 87.7654 1071.34 89.6103C1071.34 91.6859 1070.65 93.4155 1069.27 94.7992C1067.88 95.9522 1066.27 96.5288 1064.42 96.5288H939.87L940.908 95.1451V194.771L939.524 192.004H1048.86C1050.7 192.004 1052.32 192.695 1053.7 194.079C1055.08 195.463 1055.77 197.077 1055.77 198.922C1055.77 200.998 1055.08 202.727 1053.7 204.111C1052.32 205.264 1050.7 205.84 1048.86 205.84H938.832L940.908 203.073V317.919C940.908 319.764 940.216 321.379 938.832 322.762C937.679 324.146 936.064 324.838 933.988 324.838ZM1196.95 324.838C1194.87 324.838 1193.14 324.146 1191.76 322.762C1190.61 321.379 1190.03 319.764 1190.03 317.919V90.994H1203.87V317.919C1203.87 319.764 1203.18 321.379 1201.79 322.762C1200.41 324.146 1198.79 324.838 1196.95 324.838ZM1112.87 95.8369C1111.03 95.8369 1109.41 95.2604 1108.03 94.1073C1106.65 92.7236 1105.95 91.1093 1105.95 89.2644C1105.95 87.4195 1106.65 85.9205 1108.03 84.7674C1109.41 83.3837 1111.03 82.6919 1112.87 82.6919H1281.02C1282.87 82.6919 1284.48 83.3837 1285.87 84.7674C1287.25 85.9205 1287.94 87.4195 1287.94 89.2644C1287.94 91.3399 1287.25 92.9542 1285.87 94.1073C1284.48 95.2604 1282.87 95.8369 1281.02 95.8369H1112.87ZM1548.46 249.167C1548.46 260.698 1546.66 271.22 1543.06 280.733C1539.6 290.246 1534.62 298.461 1528.14 305.38C1521.65 312.298 1514.01 317.631 1505.21 321.379C1496.42 325.126 1486.76 327 1476.24 327C1465.72 327 1456.06 325.126 1447.26 321.379C1438.47 317.631 1430.83 312.298 1424.34 305.38C1417.85 298.461 1412.81 290.246 1409.2 280.733C1405.74 271.22 1404.01 260.698 1404.01 249.167C1404.01 237.637 1405.74 227.115 1409.2 217.602C1412.81 208.089 1417.85 199.873 1424.34 192.955C1430.83 186.036 1438.47 180.703 1447.26 176.956C1456.06 173.208 1465.72 171.335 1476.24 171.335C1486.76 171.335 1496.42 173.208 1505.21 176.956C1514.01 180.703 1521.65 186.036 1528.14 192.955C1534.62 199.873 1539.6 208.089 1543.06 217.602C1546.66 227.115 1548.46 237.637 1548.46 249.167ZM1539.38 249.167C1539.38 235.33 1536.64 223.223 1531.16 212.845C1525.83 202.468 1518.41 194.396 1508.89 188.631C1499.52 182.865 1488.64 179.983 1476.24 179.983C1463.99 179.983 1453.1 182.865 1443.59 188.631C1434.07 194.396 1426.58 202.468 1421.1 212.845C1415.76 223.223 1413.1 235.33 1413.1 249.167C1413.1 263.004 1415.76 275.112 1421.1 285.489C1426.58 295.867 1434.07 303.938 1443.59 309.704C1453.1 315.469 1463.99 318.352 1476.24 318.352C1488.64 318.352 1499.52 315.469 1508.89 309.704C1518.41 303.938 1525.83 295.867 1531.16 285.489C1536.64 275.112 1539.38 263.004 1539.38 249.167ZM1690.22 173.497C1691.52 173.497 1692.53 173.929 1693.25 174.794C1693.97 175.515 1694.33 176.451 1694.33 177.604V320.082C1694.33 321.667 1693.83 322.892 1692.82 323.757C1691.95 324.478 1690.95 324.838 1689.79 324.838C1689.22 324.838 1688.57 324.694 1687.85 324.406C1687.27 324.117 1686.76 323.685 1686.33 323.108L1586 186.036L1589.02 184.523V321.163C1589.02 322.171 1588.59 323.036 1587.73 323.757C1587.01 324.478 1586.07 324.838 1584.92 324.838C1583.62 324.838 1582.61 324.478 1581.89 323.757C1581.17 323.036 1580.81 322.171 1580.81 321.163V177.821C1580.81 176.235 1581.24 175.154 1582.1 174.578C1582.97 173.857 1583.83 173.497 1584.7 173.497C1585.28 173.497 1585.85 173.641 1586.43 173.929C1587.01 174.073 1587.51 174.434 1587.94 175.01L1687.85 311.217L1686.12 315.541V177.604C1686.12 176.451 1686.55 175.515 1687.41 174.794C1688.28 173.929 1689.22 173.497 1690.22 173.497ZM1874.31 324.838C1872 324.838 1870.15 324.146 1868.77 322.762C1867.62 321.379 1867.04 319.764 1867.04 317.919V89.6103C1867.04 87.7654 1867.73 86.1511 1869.12 84.7674C1870.5 83.3837 1872.11 82.6919 1873.96 82.6919H1965.3C1978.91 82.6919 1990.79 85.4592 2000.94 90.994C2011.32 96.2982 2019.39 103.678 2025.16 113.133C2030.92 122.588 2033.8 133.312 2033.8 145.304C2033.8 155.912 2031.84 165.483 2027.92 174.016C2024.23 182.548 2018.93 189.697 2012.01 195.463C2005.32 200.998 1997.59 205.033 1988.83 207.57L1972.91 204.803C1982.14 204.803 1990.9 207.224 1999.21 212.067C2007.51 216.679 2014.31 223.598 2019.62 232.822C2024.92 241.816 2027.58 252.886 2027.58 266.031C2027.58 277.331 2028.04 285.979 2028.96 291.975C2030.11 297.741 2031.5 302.007 2033.11 304.774C2034.96 307.542 2037.03 309.733 2039.34 311.347C2040.72 312.269 2041.76 313.422 2042.45 314.806C2043.15 316.19 2043.26 317.804 2042.8 319.649C2042.34 321.033 2041.53 322.186 2040.38 323.108C2039.46 323.8 2038.42 324.261 2037.26 324.492C2036.11 324.723 2034.84 324.492 2033.46 323.8C2030.23 321.955 2027 319.188 2023.77 315.498C2020.77 311.808 2018.24 306.158 2016.16 298.548C2014.08 290.937 2013.05 280.099 2013.05 266.031C2013.05 255.192 2011.32 246.544 2007.86 240.087C2004.63 233.63 2000.36 228.671 1995.05 225.212C1989.98 221.753 1984.44 219.447 1978.45 218.294C1972.68 217.141 1967.38 216.564 1962.53 216.564H1878.46L1881.57 212.413V317.919C1881.57 319.764 1880.88 321.379 1879.5 322.762C1878.11 324.146 1876.38 324.838 1874.31 324.838ZM1878.11 202.727H1967.03C1976.26 201.805 1984.79 199.037 1992.63 194.425C2000.47 189.813 2006.82 183.355 2011.66 175.053C2016.74 166.751 2019.27 156.95 2019.27 145.65C2019.27 131.582 2014.2 119.936 2004.05 110.712C1994.13 101.256 1980.64 96.5288 1963.57 96.5288H1879.84L1881.57 94.1073V206.532L1878.11 202.727ZM2103.71 82.6919H2234.15C2236 82.6919 2237.61 83.3837 2238.99 84.7674C2240.38 86.1511 2241.07 87.7654 2241.07 89.6103C2241.07 91.6859 2240.38 93.4155 2238.99 94.7992C2237.61 95.9522 2236 96.5288 2234.15 96.5288H2107.87L2111.33 90.6481V197.884L2107.17 193.041H2218.58C2220.43 193.041 2222.04 193.733 2223.42 195.117C2224.81 196.501 2225.5 198.115 2225.5 199.96C2225.5 202.035 2224.81 203.765 2223.42 205.149C2222.04 206.302 2220.43 206.878 2218.58 206.878H2107.87L2111.33 203.073V312.731L2109.94 311.001H2234.15C2236 311.001 2237.61 311.693 2238.99 313.077C2240.38 314.46 2241.07 316.075 2241.07 317.919C2241.07 319.995 2240.38 321.725 2238.99 323.108C2237.61 324.261 2236 324.838 2234.15 324.838H2103.71C2101.87 324.838 2100.25 324.146 2098.87 322.762C2097.49 321.379 2096.79 319.764 2096.79 317.919V89.6103C2096.79 87.7654 2097.49 86.1511 2098.87 84.7674C2100.25 83.3837 2101.87 82.6919 2103.71 82.6919ZM2371.64 100.334L2284.1 320.341C2283.64 321.725 2282.84 322.878 2281.68 323.8C2280.53 324.492 2279.26 324.838 2277.88 324.838C2275.57 324.838 2273.84 324.261 2272.69 323.108C2271.53 321.955 2270.84 320.572 2270.61 318.957C2270.38 318.035 2270.5 316.882 2270.96 315.498L2364.03 86.497C2364.72 84.6521 2365.53 83.499 2366.45 83.0378C2367.6 82.3459 2368.99 82 2370.6 82C2372.45 82 2373.95 82.4612 2375.1 83.3837C2376.25 84.0755 2377.06 85.1133 2377.52 86.497L2470.59 315.498C2470.82 316.19 2470.94 317.112 2470.94 318.265C2470.94 320.341 2470.24 321.955 2468.86 323.108C2467.48 324.261 2465.75 324.838 2463.67 324.838C2462.06 324.838 2460.56 324.492 2459.17 323.8C2458.02 322.878 2457.21 321.725 2456.75 320.341L2366.45 97.5665L2371.64 100.334ZM2307.63 249.773L2312.48 235.936H2424.57L2428.03 249.773H2307.63ZM2614.66 82.6919C2631.96 82.6919 2646.96 86.0358 2659.64 92.7236C2672.33 99.1808 2682.71 108.175 2690.78 119.706C2699.08 131.006 2705.2 143.92 2709.12 158.449C2713.04 172.978 2715 188.083 2715 203.765C2715 225.904 2711.42 246.198 2704.27 264.647C2697.35 282.866 2686.51 297.51 2671.75 308.58C2656.99 319.419 2637.96 324.838 2614.66 324.838H2524.71C2522.86 324.838 2521.25 324.146 2519.86 322.762C2518.48 321.379 2517.79 319.764 2517.79 317.919V89.6103C2517.79 87.7654 2518.48 86.1511 2519.86 84.7674C2521.25 83.3837 2522.86 82.6919 2524.71 82.6919H2614.66ZM2611.2 311.001C2632.42 311.001 2649.49 306.273 2662.41 296.818C2675.56 287.132 2685.13 274.218 2691.13 258.075C2697.35 241.701 2700.47 223.598 2700.47 203.765C2700.47 189.697 2698.74 176.206 2695.28 163.292C2692.05 150.377 2686.86 138.962 2679.71 129.046C2672.56 118.898 2663.33 110.942 2652.03 105.177C2640.73 99.4115 2627.12 96.5288 2611.2 96.5288H2530.24L2532.32 93.7614V314.114L2530.24 311.001H2611.2Z" fill="#D5F28B"/>
<path fill-rule="evenodd" clip-rule="evenodd" d="M430 193.4C430 87.1436 333.963 1 215.5 1C97.0369 1 1 87.1436 1 193.4C1 299.657 97.0369 385.8 215.5 385.8C239.918 385.8 263.351 382.071 285.215 375.321C285.428 375.255 285.618 375.161 285.783 375.043C293.32 372.963 300.066 370.294 305.749 367.168L306.41 367.599C306.457 367.629 306.516 367.635 306.568 367.614C306.618 367.594 306.675 367.598 306.721 367.625C348.087 392.593 405.777 403.938 424.142 407.065C426.034 407.388 427.211 405.06 425.985 403.583C405.129 378.446 397.415 333.12 394.589 300.095C394.548 299.612 394.685 299.138 394.971 298.747C417.096 268.478 430 232.301 430 193.4ZM264 180C264 174.477 268.477 170 274 170H313C318.523 170 323 174.477 323 180V269H264V180ZM196 70C190.477 70 186 74.4771 186 80V269H244.721V80C244.721 74.4771 240.244 70 234.721 70H196ZM108 133C108 127.477 112.477 123 118 123H157C162.523 123 167 127.477 167 133V269H108V133ZM323 285H109V296H323V285Z" fill="url(#paint0_linear_669_24)"/>
<path d="M285.215 375.321L285.51 376.276L285.51 376.276L285.215 375.321ZM285.783 375.043L285.517 374.079L285.348 374.126L285.204 374.228L285.783 375.043ZM305.749 367.168L306.296 366.33L305.793 366.003L305.267 366.292L305.749 367.168ZM306.41 367.599L306.957 366.762L306.956 366.761L306.41 367.599ZM306.568 367.614L306.198 366.685L306.194 366.686L306.568 367.614ZM306.721 367.625L307.238 366.769L307.237 366.769L306.721 367.625ZM424.142 407.065L424.31 406.08L424.142 407.065ZM425.985 403.583L426.755 402.944L425.985 403.583ZM394.589 300.095L393.592 300.18V300.18L394.589 300.095ZM394.971 298.747L394.164 298.157L394.163 298.157L394.971 298.747ZM323 269V270H324V269H323ZM264 269H263V270H264V269ZM186 269H185V270H186V269ZM244.721 269V270H245.721V269H244.721ZM167 269V270H168V269H167ZM108 269H107V270H108V269ZM109 285V284H108V285H109ZM323 285H324V284H323V285ZM109 296H108V297H109V296ZM323 296V297H324V296H323ZM215.5 2C333.516 2 429 87.7953 429 193.4H431C431 86.4918 334.41 0 215.5 0V2ZM2 193.4C2 87.7953 97.4841 2 215.5 2V0C96.5896 0 0 86.4918 0 193.4H2ZM215.5 384.8C97.4841 384.8 2 299.005 2 193.4H0C0 300.309 96.5896 386.8 215.5 386.8V384.8ZM284.92 374.365C263.149 381.087 239.816 384.8 215.5 384.8V386.8C240.021 386.8 263.553 383.056 285.51 376.276L284.92 374.365ZM285.204 374.228C285.128 374.282 285.034 374.33 284.919 374.366L285.51 376.276C285.821 376.18 286.107 376.039 286.361 375.859L285.204 374.228ZM305.267 366.292C299.663 369.374 292.993 372.016 285.517 374.079L286.049 376.007C293.648 373.91 300.468 371.214 306.231 368.044L305.267 366.292ZM306.956 366.761L306.296 366.33L305.203 368.006L305.864 368.436L306.956 366.761ZM306.194 366.686C306.44 366.587 306.725 366.61 306.957 366.762L305.862 368.435C306.188 368.649 306.592 368.682 306.942 368.541L306.194 366.686ZM307.237 366.769C306.914 366.575 306.529 366.553 306.198 366.685L306.939 368.543C306.708 368.635 306.435 368.621 306.206 368.482L307.237 366.769ZM424.31 406.08C405.951 402.953 348.428 391.63 307.238 366.769L306.204 368.482C347.747 393.555 405.603 404.922 423.974 408.051L424.31 406.08ZM425.216 404.222C425.542 404.615 425.56 405.125 425.346 405.538C425.137 405.939 424.764 406.157 424.31 406.08L423.974 408.051C425.413 408.296 426.574 407.511 427.12 406.46C427.661 405.42 427.654 404.028 426.755 402.944L425.216 404.222ZM393.592 300.18C395.008 316.725 397.65 336.375 402.559 355.051C407.463 373.712 414.652 391.49 425.216 404.222L426.755 402.944C416.462 390.539 409.367 373.086 404.493 354.543C399.624 336.016 396.996 316.489 395.585 300.009L393.592 300.18ZM394.163 298.157C393.739 298.737 393.53 299.45 393.592 300.18L395.585 300.01C395.565 299.774 395.631 299.539 395.778 299.337L394.163 298.157ZM429 193.4C429 232.073 416.173 268.047 394.164 298.157L395.778 299.337C418.019 268.909 431 232.528 431 193.4H429ZM274 169C267.925 169 263 173.925 263 180H265C265 175.029 269.029 171 274 171V169ZM313 169H274V171H313V169ZM324 180C324 173.925 319.075 169 313 169V171C317.971 171 322 175.029 322 180H324ZM324 269V180H322V269H324ZM264 270H323V268H264V270ZM263 180V269H265V180H263ZM187 80C187 75.0294 191.029 71 196 71V69C189.925 69 185 73.9249 185 80H187ZM187 269V80H185V269H187ZM244.721 268H186V270H244.721V268ZM243.721 80V269H245.721V80H243.721ZM234.721 71C239.692 71 243.721 75.0294 243.721 80H245.721C245.721 73.9249 240.796 69 234.721 69V71ZM196 71H234.721V69H196V71ZM118 122C111.925 122 107 126.925 107 133H109C109 128.029 113.029 124 118 124V122ZM157 122H118V124H157V122ZM168 133C168 126.925 163.075 122 157 122V124C161.971 124 166 128.029 166 133H168ZM168 269V133H166V269H168ZM108 270H167V268H108V270ZM107 133V269H109V133H107ZM109 286H323V284H109V286ZM110 296V285H108V296H110ZM323 295H109V297H323V295ZM322 285V296H324V285H322Z" fill="#D5F28B"/>
<defs>
<linearGradient id="paint0_linear_669_24" x1="-94" y1="-112" x2="430" y2="441" gradientUnits="userSpaceOnUse">
<stop offset="0.277682" stop-color="#D5F28B"/>
<stop offset="0.40167" stop-color="#D5F28B"/>
<stop offset="0.845517" stop-color="#D5F28B"/>
</linearGradient>
</defs>
</svg>
